
<svg viewBox="0 0 1607 2423" fill="none" xmlns="http://www.w3.org/2000/svg">
<path opacity="0.1" d="M1606.96 1802.97L1072.21 1493.59L2.15994 2112.67L536.911 2422.05L1606.96 1802.97Z" fill="black"/>
<path d="M1606.22 1702.88L1071.46 1393.5L714.781 1599.86L1249.53 1909.24L1606.22 1702.88Z" fill="white" fill-opacity="0.8" stroke="#171717" stroke-linejoin="bevel"/>
<path d="M1606.2 1424.31L1071.54 1114.94L1071.55 1393.29L1606.21 1702.66L1606.2 1424.31Z" fill="white" fill-opacity="0.8" stroke="#171717" stroke-linejoin="bevel"/>
<mask id="mask0_0_1" style="mask-type:luminance" maskUnits="userSpaceOnUse" x="713" y="1320" width="537" height="590">
<path d="M1249.47 1909.19L713.98 1599.34L713.972 1321L1249.46 1630.85L1249.47 1909.19Z" fill="white"/>
</mask>
<g mask="url(#mask0_0_1)">
<g filter="url(#filter0_f_0_1)">
<path d="M1249.48 1909.19L713.992 1599.34L713.983 1321L1249.47 1630.85L1249.48 1909.19Z" fill="white"/>
</g>
</g>
<path d="M1544.62 1457.46L1246.8 1629.79L1246.8 1838.99L1544.62 1666.66L1544.62 1457.46Z" fill="black"/>
<path d="M1544.62 1457.46L1246.8 1629.79L1246.8 1838.99L1544.62 1666.66L1544.62 1457.46Z" stroke="#171717"/>
<g filter="url(#filter1_i_0_1)">
<path d="M1442.5 1594.59L1374.16 1634.12L1374.16 1708.79L1442.49 1669.25L1442.5 1594.59Z" fill="white"/>
</g>
<mask id="mask1_0_1" style="mask-type:luminance" maskUnits="userSpaceOnUse" x="715" y="1114" width="892" height="517">
<path d="M1071.72 1114.58L715.133 1320.89L1249.77 1630.2L1606.36 1423.9L1071.72 1114.58Z" fill="white"/>
</mask>
<g mask="url(#mask1_0_1)">
<g filter="url(#filter2_f_0_1)">
<path d="M1071.72 1114.58L715.133 1320.89L1249.77 1630.2L1606.36 1423.9L1071.72 1114.58Z" fill="white"/>
<path d="M1084.51 1205.98L800.676 1370.19L1247.66 1628.79L1531.49 1464.58L1084.51 1205.98Z" fill="black"/>
</g>
</g>
<path d="M1249.48 1909.2L713.988 1599.34L713.979 1321L1249.47 1630.85L1249.48 1909.2Z" fill="white" fill-opacity="0.8" stroke="#171717" stroke-linejoin="bevel"/>
<path d="M1071.72 1114.58L715.133 1320.88L1249.77 1630.2L1606.36 1423.89L1071.72 1114.58Z" fill="white" fill-opacity="0.8" stroke="#171717" stroke-linejoin="bevel"/>
<path d="M1249.53 1909.24L714.777 1599.86L358.094 1806.22L892.845 2115.6L1249.53 1909.24Z" fill="white" fill-opacity="0.8" stroke="#171717" stroke-linejoin="bevel"/>
<path d="M1249.53 1630.7L714.871 1321.33L714.88 1599.68L1249.54 1909.05L1249.53 1630.7Z" fill="white" fill-opacity="0.8" stroke="#171717" stroke-linejoin="bevel"/>
<mask id="mask2_0_1" style="mask-type:luminance" maskUnits="userSpaceOnUse" x="357" y="1527" width="536" height="589">
<path d="M892.815 2115.58L357.324 1805.73L357.315 1527.38L892.806 1837.24L892.815 2115.58Z" fill="white"/>
</mask>
<g mask="url(#mask2_0_1)">
<g filter="url(#filter3_f_0_1)">
<path d="M892.815 2115.58L357.324 1805.73L357.315 1527.38L892.806 1837.24L892.815 2115.58Z" fill="white"/>
<path d="M534.287 2040.36L87.3242 1781.73L87.3309 1991.26L534.294 2249.89L534.287 2040.36Z" fill="black"/>
</g>
</g>
<path d="M1187.96 1663.84L890.141 1836.17L890.134 2045.37L1187.95 1873.04L1187.96 1663.84Z" fill="black"/>
<path d="M1187.96 1663.84L890.141 1836.17L890.134 2045.37L1187.95 1873.04L1187.96 1663.84Z" stroke="#171717"/>
<mask id="mask3_0_1" style="mask-type:luminance" maskUnits="userSpaceOnUse" x="358" y="1320" width="892" height="517">
<path d="M715.041 1320.95L358.453 1527.25L893.091 1836.57L1249.68 1630.26L715.041 1320.95Z" fill="white"/>
</mask>
<g mask="url(#mask3_0_1)">
<g filter="url(#filter4_f_0_1)">
<path d="M715.041 1320.95L358.453 1527.25L893.091 1836.57L1249.68 1630.26L715.041 1320.95Z" fill="white"/>
<path d="M727.833 1412.35L443.996 1576.56L890.976 1835.16L1174.81 1670.94L727.833 1412.35Z" fill="black"/>
</g>
</g>
<path d="M892.811 2115.59L357.32 1805.73L357.311 1527.39L892.802 1837.24L892.811 2115.59Z" fill="white" fill-opacity="0.8" stroke="#171717" stroke-linejoin="bevel"/>
<path d="M715.041 1320.95L358.453 1527.25L893.091 1836.56L1249.68 1630.26L715.041 1320.95Z" fill="white" fill-opacity="0.8" stroke="#171717" stroke-linejoin="bevel"/>
<path d="M892.849 2115.6L358.098 1806.22L1.41397 2012.58L536.165 2321.96L892.849 2115.6Z" fill="white" fill-opacity="0.8" stroke="#171717" stroke-linejoin="bevel"/>
<path d="M892.861 1837.08L358.203 1527.71L358.212 1806.05L892.87 2115.42L892.861 1837.08Z" fill="white" fill-opacity="0.8" stroke="#171717" stroke-linejoin="bevel"/>
<mask id="mask4_0_1" style="mask-type:luminance" maskUnits="userSpaceOnUse" x="0" y="1733" width="537" height="589">
<path d="M536.135 2321.95L0.644531 2012.1L0.635689 1733.76L536.126 2043.61L536.135 2321.95Z" fill="white"/>
</mask>
<g mask="url(#mask4_0_1)">
<g filter="url(#filter5_f_0_1)">
<path d="M536.135 2321.95L0.644531 2012.1L0.635689 1733.76L536.126 2043.61L536.135 2321.95Z" fill="white"/>
<path d="M534.283 2040.35L87.3203 1781.73L87.327 1991.25L534.29 2249.88L534.283 2040.35Z" fill="black"/>
</g>
</g>
<path d="M831.284 1870.21L533.465 2042.54L533.458 2251.75L831.277 2079.42L831.284 1870.21Z" fill="black"/>
<path d="M831.284 1870.21L533.465 2042.54L533.458 2251.75L831.277 2079.42L831.284 1870.21Z" stroke="#171717"/>
<mask id="mask5_0_1" style="mask-type:luminance" maskUnits="userSpaceOnUse" x="1" y="1527" width="892" height="516">
<path d="M358.357 1527.3L1.76953 1733.61L536.407 2042.92L892.995 1836.62L358.357 1527.3Z" fill="white"/>
</mask>
<g mask="url(#mask5_0_1)">
<g filter="url(#filter6_f_0_1)">
<path d="M358.357 1527.3L1.76953 1733.61L536.407 2042.92L892.995 1836.62L358.357 1527.3Z" fill="white"/>
<path d="M371.15 1618.7L87.3125 1782.91L534.292 2041.51L818.129 1877.3L371.15 1618.7Z" fill="black"/>
</g>
</g>
<path d="M536.143 2321.97L0.652344 2012.11L0.643502 1733.77L536.134 2043.62L536.143 2321.97Z" fill="white" fill-opacity="0.8" stroke="#171717" stroke-linejoin="bevel"/>
<path d="M358.357 1527.3L1.76953 1733.61L536.407 2042.92L892.995 1836.62L358.357 1527.3Z" fill="white" fill-opacity="0.8" stroke="#171717" stroke-linejoin="bevel"/>
<path d="M1606.02 1423.96L1071.27 1114.58L1.21463 1733.65L535.966 2043.03L1606.02 1423.96Z" fill="white" fill-opacity="0.8" stroke="#171717" stroke-linejoin="bevel"/>
<path d="M1606 1201.06L1071.34 891.691L1071.35 1114.37L1606 1423.74L1606 1201.06Z" fill="white" fill-opacity="0.8" stroke="#171717" stroke-linejoin="bevel"/>
<mask id="mask6_0_1" style="mask-type:luminance" maskUnits="userSpaceOnUse" x="0" y="1510" width="536" height="534">
<path d="M535.947 2043.04L0.457031 1733.18L0.449958 1510.51L535.94 1820.36L535.947 2043.04Z" fill="white"/>
</mask>
<g mask="url(#mask6_0_1)">
<g filter="url(#filter7_f_0_1)">
<path d="M535.947 2043.04L0.457031 1733.18L0.449958 1510.51L535.94 1820.36L535.947 2043.04Z" fill="white"/>
<path d="M534.088 1817.11L87.125 1558.48L87.1299 1712.34L534.093 1970.97L534.088 1817.11Z" fill="#FFF200"/>
</g>
</g>
<path d="M1544.43 1234.2L533.271 1819.29L533.266 1972.83L1544.43 1387.74L1544.43 1234.2Z" fill="#FFF200"/>
<path d="M1544.43 1234.2L533.271 1819.29L533.266 1972.83L1544.43 1387.74L1544.43 1234.2Z" fill="#FFF200"/>
<path d="M533.271 1819.29L1544.43 1234.2L1544.43 1387.74L533.266 1972.83L533.271 1819.29Z" stroke="#171717"/>
<mask id="mask7_0_1" style="mask-type:luminance" maskUnits="userSpaceOnUse" x="1" y="891" width="1605" height="929">
<path d="M1071.33 891.442L1.57031 1510.35L536.208 1819.67L1605.97 1200.76L1071.33 891.442Z" fill="white"/>
</mask>
<g mask="url(#mask7_0_1)">
<g filter="url(#filter8_f_0_1)">
<path d="M1071.33 891.442L1.57031 1510.35L536.208 1819.67L1605.97 1200.76L1071.33 891.442Z" fill="white"/>
<path d="M1084.32 982.725L87.1133 1559.66L534.093 1818.26L1531.3 1241.32L1084.32 982.725Z" fill="#FFF200"/>
</g>
</g>
<path d="M535.951 2043.04L0.460938 1733.19L0.453864 1510.52L535.944 1820.37L535.951 2043.04Z" fill="white" fill-opacity="0.8" stroke="#171717" stroke-linejoin="bevel"/>
<path d="M1071.33 891.442L1.57031 1510.35L536.208 1819.67L1605.97 1200.76L1071.33 891.442Z" fill="white" fill-opacity="0.8" stroke="#171717" stroke-linejoin="bevel"/>
<path d="M1606.02 1201.04L1071.27 891.66L1.21463 1510.74L535.966 1820.12L1606.02 1201.04Z" fill="white" fill-opacity="0.8" stroke="#171717" stroke-linejoin="bevel"/>
<path d="M1606 978.144L1071.34 668.773L1071.35 891.448L1606 1200.82L1606 978.144Z" fill="white" fill-opacity="0.8" stroke="#171717" stroke-linejoin="bevel"/>
<mask id="mask8_0_1" style="mask-type:luminance" maskUnits="userSpaceOnUse" x="0" y="1287" width="536" height="534">
<path d="M535.947 1820.11L0.457031 1510.26L0.449958 1287.59L535.94 1597.44L535.947 1820.11Z" fill="white"/>
</mask>
<g mask="url(#mask8_0_1)">
<g filter="url(#filter9_f_0_1)">
<path d="M535.947 1820.11L0.457031 1510.26L0.449958 1287.59L535.94 1597.44L535.947 1820.11Z" fill="white"/>
<path d="M534.088 1594.18L87.125 1335.55L87.1299 1489.41L534.093 1748.04L534.088 1594.18Z" fill="#C2FE0A"/>
</g>
</g>
<path d="M1544.43 1011.29L533.27 1596.38L533.265 1749.91L1544.42 1164.82L1544.43 1011.29Z" fill="#C2FE0A"/>
<path d="M1544.43 1011.29L533.27 1596.38L533.265 1749.91L1544.42 1164.82L1544.43 1011.29Z" stroke="#171717"/>
<mask id="mask9_0_1" style="mask-type:luminance" maskUnits="userSpaceOnUse" x="1" y="668" width="1605" height="929">
<path d="M1071.33 668.52L1.57031 1287.43L536.208 1596.74L1605.97 977.834L1071.33 668.52Z" fill="white"/>
</mask>
<g mask="url(#mask9_0_1)">
<g filter="url(#filter10_f_0_1)">
<path d="M1071.33 668.52L1.57031 1287.43L536.208 1596.74L1605.97 977.834L1071.33 668.52Z" fill="white"/>
<path d="M1084.32 759.804L87.1133 1336.73L534.093 1595.33L1531.3 1018.4L1084.32 759.804Z" fill="#C2FE0A"/>
</g>
</g>
<path d="M535.951 1820.12L0.460938 1510.27L0.453864 1287.59L535.944 1597.45L535.951 1820.12Z" fill="white" fill-opacity="0.8" stroke="#171717" stroke-linejoin="bevel"/>
<path d="M1071.33 668.524L1.57031 1287.43L536.208 1596.75L1605.97 977.838L1071.33 668.524Z" fill="white" fill-opacity="0.8" stroke="#171717" stroke-linejoin="bevel"/>
<path d="M1606.02 978.125L1071.27 668.746L1.21463 1287.82L535.966 1597.2L1606.02 978.125Z" fill="white" fill-opacity="0.8" stroke="#171717" stroke-linejoin="bevel"/>
<path d="M1606 309.875L1071.34 0.503906L1071.36 668.529L1606.02 977.9L1606 309.875Z" fill="white" fill-opacity="0.8" stroke="#171717" stroke-linejoin="bevel"/>
<mask id="mask10_0_1" style="mask-type:luminance" maskUnits="userSpaceOnUse" x="0" y="619" width="536" height="979">
<path d="M535.94 1597.21L0.449219 1287.36L0.427998 619.331L535.918 929.183L535.94 1597.21Z" fill="white"/>
</mask>
<g mask="url(#mask10_0_1)">
<g filter="url(#filter11_f_0_1)">
<path d="M535.94 1597.21L0.449219 1287.36L0.427998 619.331L535.918 929.183L535.94 1597.21Z" fill="white"/>
<path d="M534.084 925.92L87.1211 667.293L87.1401 1266.5L534.103 1525.13L534.084 925.92Z" fill="#002BFF"/>
</g>
</g>
<path d="M1544.43 343.015L533.273 928.105L533.254 1526.99L1544.41 941.9L1544.43 343.015Z" fill="#002BFF"/>
<path d="M1544.43 343.015L533.273 928.105L533.254 1526.99L1544.41 941.9L1544.43 343.015Z" stroke="#171717"/>
<mask id="mask11_0_1" style="mask-type:luminance" maskUnits="userSpaceOnUse" x="1" y="0" width="1605" height="929">
<path d="M1071.33 0.258385L1.57031 619.168L536.208 928.482L1605.97 309.572L1071.33 0.258385Z" fill="white"/>
</mask>
<g mask="url(#mask11_0_1)">
<g filter="url(#filter12_f_0_1)">
<path d="M1071.33 0.258385L1.57031 619.168L536.208 928.482L1605.97 309.572L1071.33 0.258385Z" fill="white"/>
<path d="M1084.32 91.5419L87.1133 668.473L534.093 927.072L1531.3 350.141L1084.32 91.5419Z" fill="#002BFF"/>
</g>
</g>
<path d="M535.943 1597.2L0.453125 1287.35L0.431904 619.323L535.922 929.175L535.943 1597.2Z" fill="white" fill-opacity="0.8" stroke="#171717" stroke-linejoin="bevel"/>
<path d="M1071.33 0.250573L1.57031 619.16L536.208 928.474L1605.97 309.564L1071.33 0.250573Z" fill="white" fill-opacity="0.8" stroke="#171717" stroke-linejoin="bevel"/>
<g filter="url(#filter13_d_0_1)">
<path d="M808.413 1783.91L753.411 1816.63C749.891 1818.72 746.664 1819.66 743.731 1819.44C740.797 1819.14 738.45 1817.85 736.69 1815.57C735.004 1813.16 734.16 1809.86 734.16 1805.68C734.16 1801.5 735.004 1797.24 736.69 1792.91C738.45 1788.45 740.797 1784.37 743.731 1780.66C746.664 1776.87 749.891 1773.92 753.411 1771.83L791.912 1748.92V1761.72L753.411 1784.63C751.137 1785.98 749.194 1788.08 747.581 1790.91C745.967 1793.75 745.161 1796.49 745.161 1799.14C745.161 1801.78 745.967 1803.56 747.581 1804.48C749.194 1805.4 751.137 1805.18 753.411 1803.83L797.412 1777.65V1742.45C797.412 1739.81 796.606 1738.02 794.992 1737.11C793.379 1736.19 791.436 1736.41 789.162 1737.76L745.161 1763.94V1751.14L789.162 1724.96C792.756 1722.82 795.982 1721.93 798.843 1722.27C801.776 1722.49 804.086 1723.8 805.773 1726.21C807.533 1728.49 808.413 1731.72 808.413 1735.91V1783.91Z" fill="black"/>
<path d="M886.914 1714.8C886.914 1718.98 886.034 1723.3 884.274 1727.77C882.588 1732.1 880.278 1736.16 877.344 1739.95C874.484 1743.62 871.257 1746.52 867.664 1748.66L820.912 1776.47V1763.67L867.664 1735.86C869.937 1734.5 871.881 1732.41 873.494 1729.57C875.107 1726.73 875.914 1723.99 875.914 1721.35C875.914 1718.7 875.107 1716.92 873.494 1716C871.881 1715.09 869.937 1715.3 867.664 1716.66L837.413 1734.65C834.406 1736.44 831.619 1737.25 829.052 1737.07C826.559 1736.84 824.579 1735.72 823.112 1733.69C821.645 1731.58 820.912 1728.77 820.912 1725.27C820.912 1721.69 821.645 1718.01 823.112 1714.23C824.579 1710.46 826.559 1706.98 829.052 1703.79C831.619 1700.55 834.406 1698.04 837.413 1696.25L881.414 1670.08V1682.88L837.413 1709.05C835.873 1709.97 834.553 1711.39 833.453 1713.33C832.426 1715.13 831.912 1716.93 831.912 1718.73C831.912 1720.52 832.426 1721.75 833.453 1722.42C834.553 1722.96 835.873 1722.77 837.413 1721.85L867.664 1703.86C871.257 1701.72 874.484 1700.82 877.344 1701.17C880.278 1701.39 882.588 1702.7 884.274 1705.11C886.034 1707.39 886.914 1710.62 886.914 1714.8Z" fill="black"/>
<path d="M961.361 1670.51C961.361 1674.69 960.481 1679.01 958.72 1683.47C957.034 1687.81 954.724 1691.87 951.79 1695.66C948.93 1699.33 945.703 1702.23 942.11 1704.36L895.358 1732.18V1719.38L942.11 1691.56C944.383 1690.21 946.327 1688.12 947.94 1685.28C949.553 1682.44 950.36 1679.7 950.36 1677.06C950.36 1674.41 949.553 1672.63 947.94 1671.71C946.327 1670.79 944.383 1671.01 942.11 1672.36L911.859 1690.36C908.852 1692.15 906.065 1692.96 903.498 1692.78C901.005 1692.55 899.025 1691.43 897.558 1689.4C896.092 1687.28 895.358 1684.48 895.358 1680.98C895.358 1677.4 896.092 1673.72 897.558 1669.94C899.025 1666.17 901.005 1662.69 903.498 1659.5C906.065 1656.26 908.852 1653.75 911.859 1651.96L955.86 1625.78V1638.58L911.859 1664.76C910.319 1665.68 908.999 1667.1 907.899 1669.04C906.872 1670.84 906.359 1672.64 906.359 1674.43C906.359 1676.23 906.872 1677.46 907.899 1678.13C908.999 1678.67 910.319 1678.48 911.859 1677.56L942.11 1659.56C945.703 1657.43 948.93 1656.53 951.79 1656.88C954.724 1657.1 957.034 1658.41 958.72 1660.82C960.481 1663.1 961.361 1666.33 961.361 1670.51Z" fill="black"/>
<path d="M1043.07 1596.3C1043.07 1600.4 1042.19 1604.68 1040.43 1609.14C1038.74 1613.55 1036.43 1617.66 1033.5 1621.45C1030.64 1625.12 1027.41 1628.02 1023.82 1630.15L981.685 1655.22C983.225 1658.06 985.498 1659.78 988.505 1660.38C991.585 1660.94 995.032 1660.08 998.845 1657.81L1034.82 1636.41V1649.21L998.845 1670.61C994.665 1673.1 990.742 1674.54 987.075 1674.93C983.481 1675.19 980.291 1674.52 977.504 1672.94C974.791 1671.31 972.664 1668.86 971.124 1665.6C969.584 1662.25 968.814 1658.14 968.814 1653.28C968.814 1648.41 969.584 1643.43 971.124 1638.34C972.664 1633.15 974.791 1628.13 977.504 1623.28C980.291 1618.37 983.481 1613.96 987.075 1610.03C990.742 1605.97 994.665 1602.7 998.845 1600.21L1023.82 1585.35C1027.41 1583.22 1030.64 1582.32 1033.5 1582.67C1036.43 1582.89 1038.74 1584.2 1040.43 1586.61C1042.19 1588.89 1043.07 1592.12 1043.07 1596.3ZM1023.82 1617.35C1026.09 1616 1028.03 1613.91 1029.65 1611.07C1031.26 1608.23 1032.07 1605.49 1032.07 1602.85C1032.07 1600.2 1031.26 1598.42 1029.65 1597.5C1028.03 1596.58 1026.09 1596.8 1023.82 1598.15L998.845 1613.01C995.618 1614.93 992.648 1617.55 989.935 1620.87C987.295 1624.15 985.095 1627.76 983.335 1631.71C981.575 1635.66 980.475 1639.56 980.035 1643.4L1023.82 1617.35Z" fill="black"/>
<path d="M1064.88 1631.33L1053.88 1637.87V1567.47L1111.85 1532.98C1116.03 1530.49 1119.92 1529.12 1123.51 1528.86C1127.18 1528.47 1130.37 1529.09 1133.08 1530.72C1135.87 1532.3 1138.03 1534.77 1139.57 1538.12C1141.11 1541.38 1141.88 1545.45 1141.88 1550.31V1585.51L1130.88 1592.06V1556.86C1130.88 1552.76 1130.04 1549.55 1128.35 1547.23C1126.66 1544.82 1124.35 1543.46 1121.42 1543.16C1118.56 1542.81 1115.37 1543.69 1111.85 1545.78L1103.38 1550.82V1608.42L1092.38 1614.96V1557.36L1064.88 1573.73V1631.33Z" fill="black"/>
<path d="M1227.97 1499.1C1227.97 1503.96 1227.2 1508.99 1225.66 1514.17C1224.12 1519.27 1221.95 1524.26 1219.17 1529.17C1216.45 1534.02 1213.26 1538.48 1209.6 1542.54C1206 1546.47 1202.12 1549.68 1197.94 1552.16L1156.68 1576.71V1480.71L1167.69 1474.16V1557.36L1197.94 1539.36C1201.46 1537.27 1204.65 1534.35 1207.51 1530.6C1210.44 1526.81 1212.75 1522.74 1214.44 1518.41C1216.12 1513.99 1216.97 1509.74 1216.97 1505.64C1216.97 1501.55 1216.12 1498.34 1214.44 1496.01C1212.75 1493.6 1210.44 1492.25 1207.51 1491.94C1204.65 1491.6 1201.46 1492.47 1197.94 1494.56L1173.19 1509.29V1496.49L1197.94 1481.76C1202.12 1479.28 1206 1477.9 1209.6 1477.64C1213.26 1477.25 1216.45 1477.87 1219.17 1479.5C1221.95 1481.09 1224.12 1483.55 1225.66 1486.9C1227.2 1490.17 1227.97 1494.23 1227.97 1499.1Z" fill="black"/>
<path d="M1261.5 1514.35L1258.75 1515.98C1255.23 1518.08 1252 1519.02 1249.07 1518.8C1246.14 1518.5 1243.79 1517.2 1242.03 1514.92C1240.34 1512.51 1239.5 1509.22 1239.5 1505.04V1431.44L1250.5 1424.89V1498.49C1250.5 1501.14 1251.31 1502.92 1252.92 1503.84C1254.53 1504.75 1256.48 1504.54 1258.75 1503.18L1261.5 1501.55V1514.35Z" fill="black"/>
<path d="M1341.5 1418.76C1341.5 1422.85 1340.62 1427.13 1338.86 1431.59C1337.17 1436.01 1334.86 1440.11 1331.93 1443.91C1329.07 1447.57 1325.84 1450.47 1322.25 1452.61L1280.11 1477.67C1281.65 1480.51 1283.93 1482.23 1286.93 1482.83C1290.01 1483.39 1293.46 1482.53 1297.27 1480.26L1333.25 1458.86V1471.66L1297.27 1493.06C1293.09 1495.55 1289.17 1496.99 1285.5 1497.38C1281.91 1497.64 1278.72 1496.98 1275.93 1495.39C1273.22 1493.76 1271.09 1491.32 1269.55 1488.05C1268.01 1484.7 1267.24 1480.6 1267.24 1475.73C1267.24 1470.87 1268.01 1465.89 1269.55 1460.79C1271.09 1455.61 1273.22 1450.59 1275.93 1445.73C1278.72 1440.83 1281.91 1436.41 1285.5 1432.48C1289.17 1428.42 1293.09 1425.15 1297.27 1422.66L1322.25 1407.81C1325.84 1405.67 1329.07 1404.77 1331.93 1405.12C1334.86 1405.34 1337.17 1406.65 1338.86 1409.06C1340.62 1411.34 1341.5 1414.57 1341.5 1418.76ZM1322.25 1439.81C1324.52 1438.46 1326.46 1436.36 1328.08 1433.52C1329.69 1430.69 1330.5 1427.95 1330.5 1425.3C1330.5 1422.65 1329.69 1420.87 1328.08 1419.96C1326.46 1419.04 1324.52 1419.26 1322.25 1420.61L1297.27 1435.46C1294.05 1437.38 1291.08 1440 1288.36 1443.33C1285.72 1446.6 1283.52 1450.22 1281.76 1454.16C1280 1458.11 1278.9 1462.01 1278.46 1465.86L1322.25 1439.81Z" fill="black"/>
<path d="M1412.37 1366.99L1371.12 1391.53C1368.84 1392.88 1366.9 1394.98 1365.29 1397.82C1363.67 1400.65 1362.87 1403.4 1362.87 1406.04V1454.04L1351.87 1460.59V1412.59C1351.87 1408.4 1352.71 1404.15 1354.4 1399.82C1356.16 1395.36 1358.5 1391.27 1361.44 1387.56C1364.37 1383.77 1367.6 1380.83 1371.12 1378.73L1412.37 1354.19V1366.99Z" fill="black"/>
<path d="M808.413 1783.91L753.411 1816.63C749.891 1818.72 746.664 1819.66 743.731 1819.44C740.797 1819.14 738.45 1817.85 736.69 1815.57C735.004 1813.16 734.16 1809.86 734.16 1805.68C734.16 1801.5 735.004 1797.24 736.69 1792.91C738.45 1788.45 740.797 1784.37 743.731 1780.66C746.664 1776.87 749.891 1773.92 753.411 1771.83L791.912 1748.92V1761.72L753.411 1784.63C751.137 1785.98 749.194 1788.08 747.581 1790.91C745.967 1793.75 745.161 1796.49 745.161 1799.14C745.161 1801.78 745.967 1803.56 747.581 1804.48C749.194 1805.4 751.137 1805.18 753.411 1803.83L797.412 1777.65V1742.45C797.412 1739.81 796.606 1738.02 794.992 1737.11C793.379 1736.19 791.436 1736.41 789.162 1737.76L745.161 1763.94V1751.14L789.162 1724.96C792.756 1722.82 795.982 1721.93 798.843 1722.27C801.776 1722.49 804.086 1723.8 805.773 1726.21C807.533 1728.49 808.413 1731.72 808.413 1735.91V1783.91Z" stroke="black" stroke-width="20"/>
<path d="M886.914 1714.8C886.914 1718.98 886.034 1723.3 884.274 1727.77C882.588 1732.1 880.278 1736.16 877.344 1739.95C874.484 1743.62 871.257 1746.52 867.664 1748.66L820.912 1776.47V1763.67L867.664 1735.86C869.937 1734.5 871.881 1732.41 873.494 1729.57C875.107 1726.73 875.914 1723.99 875.914 1721.35C875.914 1718.7 875.107 1716.92 873.494 1716C871.881 1715.09 869.937 1715.3 867.664 1716.66L837.413 1734.65C834.406 1736.44 831.619 1737.25 829.052 1737.07C826.559 1736.84 824.579 1735.72 823.112 1733.69C821.645 1731.58 820.912 1728.77 820.912 1725.27C820.912 1721.69 821.645 1718.01 823.112 1714.23C824.579 1710.46 826.559 1706.98 829.052 1703.79C831.619 1700.55 834.406 1698.04 837.413 1696.25L881.414 1670.08V1682.88L837.413 1709.05C835.873 1709.97 834.553 1711.39 833.453 1713.33C832.426 1715.13 831.912 1716.93 831.912 1718.73C831.912 1720.52 832.426 1721.75 833.453 1722.42C834.553 1722.96 835.873 1722.77 837.413 1721.85L867.664 1703.86C871.257 1701.72 874.484 1700.82 877.344 1701.17C880.278 1701.39 882.588 1702.7 884.274 1705.11C886.034 1707.39 886.914 1710.62 886.914 1714.8Z" stroke="black" stroke-width="20"/>
<path d="M961.361 1670.51C961.361 1674.69 960.481 1679.01 958.72 1683.47C957.034 1687.81 954.724 1691.87 951.79 1695.66C948.93 1699.33 945.703 1702.23 942.11 1704.36L895.358 1732.18V1719.38L942.11 1691.56C944.383 1690.21 946.327 1688.12 947.94 1685.28C949.553 1682.44 950.36 1679.7 950.36 1677.06C950.36 1674.41 949.553 1672.63 947.94 1671.71C946.327 1670.79 944.383 1671.01 942.11 1672.36L911.859 1690.36C908.852 1692.15 906.065 1692.96 903.498 1692.78C901.005 1692.55 899.025 1691.43 897.558 1689.4C896.092 1687.28 895.358 1684.48 895.358 1680.98C895.358 1677.4 896.092 1673.72 897.558 1669.94C899.025 1666.17 901.005 1662.69 903.498 1659.5C906.065 1656.26 908.852 1653.75 911.859 1651.96L955.86 1625.78V1638.58L911.859 1664.76C910.319 1665.68 908.999 1667.1 907.899 1669.04C906.872 1670.84 906.359 1672.64 906.359 1674.43C906.359 1676.23 906.872 1677.46 907.899 1678.13C908.999 1678.67 910.319 1678.48 911.859 1677.56L942.11 1659.56C945.703 1657.43 948.93 1656.53 951.79 1656.88C954.724 1657.1 957.034 1658.41 958.72 1660.82C960.481 1663.1 961.361 1666.33 961.361 1670.51Z" stroke="black" stroke-width="20"/>
<path d="M1043.07 1596.3C1043.07 1600.4 1042.19 1604.68 1040.43 1609.14C1038.74 1613.55 1036.43 1617.66 1033.5 1621.45C1030.64 1625.12 1027.41 1628.02 1023.82 1630.15L981.685 1655.22C983.225 1658.06 985.498 1659.78 988.505 1660.38C991.585 1660.94 995.032 1660.08 998.845 1657.81L1034.82 1636.41V1649.21L998.845 1670.61C994.665 1673.1 990.742 1674.54 987.075 1674.93C983.481 1675.19 980.291 1674.52 977.504 1672.94C974.791 1671.31 972.664 1668.86 971.124 1665.6C969.584 1662.25 968.814 1658.14 968.814 1653.28C968.814 1648.41 969.584 1643.43 971.124 1638.34C972.664 1633.15 974.791 1628.13 977.504 1623.28C980.291 1618.37 983.481 1613.96 987.075 1610.03C990.742 1605.97 994.665 1602.7 998.845 1600.21L1023.82 1585.35C1027.41 1583.22 1030.64 1582.32 1033.5 1582.67C1036.43 1582.89 1038.74 1584.2 1040.43 1586.61C1042.19 1588.89 1043.07 1592.12 1043.07 1596.3ZM1023.82 1617.35C1026.09 1616 1028.03 1613.91 1029.65 1611.07C1031.26 1608.23 1032.07 1605.49 1032.07 1602.85C1032.07 1600.2 1031.26 1598.42 1029.65 1597.5C1028.03 1596.58 1026.09 1596.8 1023.82 1598.15L998.845 1613.01C995.618 1614.93 992.648 1617.55 989.935 1620.87C987.295 1624.15 985.095 1627.76 983.335 1631.71C981.575 1635.66 980.475 1639.56 980.035 1643.4L1023.82 1617.35Z" stroke="black" stroke-width="20"/>
<path d="M1064.88 1631.33L1053.88 1637.87V1567.47L1111.85 1532.98C1116.03 1530.49 1119.92 1529.12 1123.51 1528.86C1127.18 1528.47 1130.37 1529.09 1133.08 1530.72C1135.87 1532.3 1138.03 1534.77 1139.57 1538.12C1141.11 1541.38 1141.88 1545.45 1141.88 1550.31V1585.51L1130.88 1592.06V1556.86C1130.88 1552.76 1130.04 1549.55 1128.35 1547.23C1126.66 1544.82 1124.35 1543.46 1121.42 1543.16C1118.56 1542.81 1115.37 1543.69 1111.85 1545.78L1103.38 1550.82V1608.42L1092.38 1614.96V1557.36L1064.88 1573.73V1631.33Z" stroke="black" stroke-width="20"/>
<path d="M1227.97 1499.1C1227.97 1503.96 1227.2 1508.99 1225.66 1514.17C1224.12 1519.27 1221.95 1524.26 1219.17 1529.17C1216.45 1534.02 1213.26 1538.48 1209.6 1542.54C1206 1546.47 1202.12 1549.68 1197.94 1552.16L1156.68 1576.71V1480.71L1167.69 1474.16V1557.36L1197.94 1539.36C1201.46 1537.27 1204.65 1534.35 1207.51 1530.6C1210.44 1526.81 1212.75 1522.74 1214.44 1518.41C1216.12 1513.99 1216.97 1509.74 1216.97 1505.64C1216.97 1501.55 1216.12 1498.34 1214.44 1496.01C1212.75 1493.6 1210.44 1492.25 1207.51 1491.94C1204.65 1491.6 1201.46 1492.47 1197.94 1494.56L1173.19 1509.29V1496.49L1197.94 1481.76C1202.12 1479.28 1206 1477.9 1209.6 1477.64C1213.26 1477.25 1216.45 1477.87 1219.17 1479.5C1221.95 1481.09 1224.12 1483.55 1225.66 1486.9C1227.2 1490.17 1227.97 1494.23 1227.97 1499.1Z" stroke="black" stroke-width="20"/>
<path d="M1261.5 1514.35L1258.75 1515.98C1255.23 1518.08 1252 1519.02 1249.07 1518.8C1246.14 1518.5 1243.79 1517.2 1242.03 1514.92C1240.34 1512.51 1239.5 1509.22 1239.5 1505.04V1431.44L1250.5 1424.89V1498.49C1250.5 1501.14 1251.31 1502.92 1252.92 1503.84C1254.53 1504.75 1256.48 1504.54 1258.75 1503.18L1261.5 1501.55V1514.35Z" stroke="black" stroke-width="20"/>
<path d="M1341.5 1418.76C1341.5 1422.85 1340.62 1427.13 1338.86 1431.59C1337.17 1436.01 1334.86 1440.11 1331.93 1443.91C1329.07 1447.57 1325.84 1450.47 1322.25 1452.61L1280.11 1477.67C1281.65 1480.51 1283.93 1482.23 1286.93 1482.83C1290.01 1483.39 1293.46 1482.53 1297.27 1480.26L1333.25 1458.86V1471.66L1297.27 1493.06C1293.09 1495.55 1289.17 1496.99 1285.5 1497.38C1281.91 1497.64 1278.72 1496.98 1275.93 1495.39C1273.22 1493.76 1271.09 1491.32 1269.55 1488.05C1268.01 1484.7 1267.24 1480.6 1267.24 1475.73C1267.24 1470.87 1268.01 1465.89 1269.55 1460.79C1271.09 1455.61 1273.22 1450.59 1275.93 1445.73C1278.72 1440.83 1281.91 1436.41 1285.5 1432.48C1289.17 1428.42 1293.09 1425.15 1297.27 1422.66L1322.25 1407.81C1325.84 1405.67 1329.07 1404.77 1331.93 1405.12C1334.86 1405.34 1337.17 1406.65 1338.86 1409.06C1340.62 1411.34 1341.5 1414.57 1341.5 1418.76ZM1322.25 1439.81C1324.52 1438.46 1326.46 1436.36 1328.08 1433.52C1329.69 1430.69 1330.5 1427.95 1330.5 1425.3C1330.5 1422.65 1329.69 1420.87 1328.08 1419.96C1326.46 1419.04 1324.52 1419.26 1322.25 1420.61L1297.27 1435.46C1294.05 1437.38 1291.08 1440 1288.36 1443.33C1285.72 1446.6 1283.52 1450.22 1281.76 1454.16C1280 1458.11 1278.9 1462.01 1278.46 1465.86L1322.25 1439.81Z" stroke="black" stroke-width="20"/>
<path d="M1412.37 1366.99L1371.12 1391.53C1368.84 1392.88 1366.9 1394.98 1365.29 1397.82C1363.67 1400.65 1362.87 1403.4 1362.87 1406.04V1454.04L1351.87 1460.59V1412.59C1351.87 1408.4 1352.71 1404.15 1354.4 1399.82C1356.16 1395.36 1358.5 1391.27 1361.44 1387.56C1364.37 1383.77 1367.6 1380.83 1371.12 1378.73L1412.37 1354.19V1366.99Z" stroke="black" stroke-width="20"/>
</g>
<g filter="url(#filter14_i_0_1)">
<path d="M638.325 2034.07L658.247 2042.95C654.616 2046.99 651.208 2051.5 648.155 2056.38C645.102 2061.27 642.622 2066.19 640.713 2071L620.791 2062.13C615.95 2059.97 615.95 2051.94 620.791 2044.2C625.633 2036.45 633.483 2031.92 638.325 2034.07Z" fill="white"/>
<path d="M731.042 2032.98C735.884 2035.14 735.884 2043.17 731.042 2050.91C726.201 2058.66 718.35 2063.19 713.508 2061.04L692.654 2051.75C685.978 2048.78 675.154 2055.02 668.478 2065.71C661.802 2076.39 661.802 2087.46 668.478 2090.43L695.456 2102.45C680.624 2116.68 663.27 2123.43 651.343 2118.12C635.057 2110.87 635.057 2083.86 651.343 2057.8C667.451 2032.03 693.46 2016.83 709.784 2023.52L709.789 2023.52L731.042 2032.98Z" fill="white"/>
<path d="M689.599 2056.91L709.789 2065.9C716.465 2068.88 727.289 2062.63 733.964 2051.94C740.64 2041.26 740.64 2030.19 733.964 2027.22L706.986 2015.2C721.818 2000.97 739.173 1994.22 751.1 1999.53C767.386 2006.78 767.386 2033.79 751.1 2059.85C734.814 2085.91 708.408 2101.15 692.122 2093.9L672.065 2084.97C667.223 2082.81 667.223 2074.78 672.065 2067.03C676.906 2059.29 684.757 2054.75 689.599 2056.91Z" fill="white"/>
<path d="M763.981 2083.52C768.823 2085.68 776.673 2081.14 781.515 2073.4C786.357 2065.65 786.357 2057.62 781.515 2055.46L761.594 2046.59C759.685 2051.41 757.205 2056.32 754.152 2061.21C751.099 2066.09 747.691 2070.6 744.06 2074.65L763.981 2083.52Z" fill="white"/>
</g>
<g filter="url(#filter15_d_0_1)">
<mask id="path-76-outside-1_0_1" maskUnits="userSpaceOnUse" x="663.317" y="606.798" width="793.232" height="631.923" fill="black">
<rect fill="white" x="663.317" y="606.798" width="793.232" height="631.923"/>
<path d="M812.51 1139.96L789.306 1153.77L727.944 1118.27L689.786 1172.97V1212.97L672.598 1223.2V1083.2L689.786 1072.97V1150.97L784.149 1016.83L809.244 1001.9L741.007 1099.5L812.51 1139.96ZM960.427 1011.96C960.427 1019.29 958.479 1027.18 954.583 1035.64C950.801 1043.89 945.645 1051.75 939.114 1059.24C932.582 1066.73 925.363 1072.82 917.456 1077.52L821.375 1134.69V1114.69L917.456 1057.52C922.155 1054.73 926.452 1051.31 930.348 1047.25C934.244 1043.07 937.337 1038.76 939.629 1034.33C942.036 1029.83 943.239 1025.79 943.239 1022.19V1012.19L864.345 1059.12C856.439 1063.83 849.22 1065.85 842.688 1065.21C836.271 1064.49 831.115 1061.56 827.219 1056.41C823.323 1051.13 821.375 1043.89 821.375 1034.69V994.687L838.563 984.461V1024.46C838.563 1029.93 839.709 1034.31 842.001 1037.62C844.292 1040.79 847.386 1042.54 851.282 1042.89C855.293 1043.17 859.647 1041.92 864.345 1039.12L943.239 992.185V922.185L960.427 911.959V1011.96ZM1129.96 911.098C1129.96 918.431 1128.41 926.085 1125.32 934.059C1122.22 941.9 1118.04 949.188 1112.77 955.924C1107.61 962.592 1101.89 967.8 1095.58 971.55L1014.11 1020.02V1000.02L1095.58 951.55C1100.28 948.755 1104.29 944.435 1107.61 938.592C1111.05 932.546 1112.77 926.79 1112.77 921.324C1112.77 915.857 1111.05 912.213 1107.61 910.392C1104.29 908.369 1100.28 908.755 1095.58 911.55L1014.11 960.02V940.02L1078.4 901.776C1083.09 898.98 1087.1 894.661 1090.43 888.817C1093.86 882.772 1095.58 877.016 1095.58 871.55C1095.58 866.083 1093.86 862.439 1090.43 860.617C1087.1 858.594 1083.09 858.98 1078.4 861.776L1005.52 905.133V1025.13L988.329 1035.36V895.359L1078.4 841.776C1084.7 838.026 1090.43 836.417 1095.58 836.95C1100.85 837.414 1105.04 839.792 1108.13 844.085C1111.22 848.244 1112.77 853.99 1112.77 861.324C1112.77 865.457 1112.26 869.764 1111.22 874.244C1110.19 878.591 1108.76 882.91 1106.93 887.201C1113.69 885.845 1119.19 887.373 1123.43 891.784C1127.78 895.993 1129.96 902.431 1129.96 911.098ZM1274.58 865.057L1150.14 939.092V799.092L1274.58 725.057V745.057L1167.33 808.866V908.866L1274.58 845.057V865.057ZM1259.97 813.749L1175.92 863.753V843.753L1259.97 793.749V813.749ZM1434.72 769.787L1411.51 783.592L1375.42 765.066L1322.65 796.46V776.66L1391.75 735.552C1396.56 732.688 1400.91 728.765 1404.81 723.78C1408.7 718.662 1411.8 713.155 1414.09 707.258C1416.38 701.228 1417.53 695.48 1417.53 690.013C1417.53 684.413 1416.38 680.028 1414.09 676.858C1411.8 673.688 1408.7 671.929 1404.81 671.58C1400.91 671.231 1396.56 672.488 1391.75 675.352L1313.02 722.186V842.186L1295.84 852.412V712.412L1391.75 655.352C1399.65 650.648 1406.87 648.62 1413.4 649.267C1419.93 649.781 1425.09 652.714 1428.87 658.064C1432.77 663.346 1434.72 670.587 1434.72 679.787C1434.72 688.054 1433.11 696.675 1429.9 705.65C1426.81 714.558 1422.51 722.981 1417.01 730.92C1411.63 738.657 1405.5 745.238 1398.62 750.661L1434.72 769.787Z"/>
</mask>
<path d="M812.51 1139.96L789.306 1153.77L727.944 1118.27L689.786 1172.97V1212.97L672.598 1223.2V1083.2L689.786 1072.97V1150.97L784.149 1016.83L809.244 1001.9L741.007 1099.5L812.51 1139.96ZM960.427 1011.96C960.427 1019.29 958.479 1027.18 954.583 1035.64C950.801 1043.89 945.645 1051.75 939.114 1059.24C932.582 1066.73 925.363 1072.82 917.456 1077.52L821.375 1134.69V1114.69L917.456 1057.52C922.155 1054.73 926.452 1051.31 930.348 1047.25C934.244 1043.07 937.337 1038.76 939.629 1034.33C942.036 1029.83 943.239 1025.79 943.239 1022.19V1012.19L864.345 1059.12C856.439 1063.83 849.22 1065.85 842.688 1065.21C836.271 1064.49 831.115 1061.56 827.219 1056.41C823.323 1051.13 821.375 1043.89 821.375 1034.69V994.687L838.563 984.461V1024.46C838.563 1029.93 839.709 1034.31 842.001 1037.62C844.292 1040.79 847.386 1042.54 851.282 1042.89C855.293 1043.17 859.647 1041.92 864.345 1039.12L943.239 992.185V922.185L960.427 911.959V1011.96ZM1129.96 911.098C1129.96 918.431 1128.41 926.085 1125.32 934.059C1122.22 941.9 1118.04 949.188 1112.77 955.924C1107.61 962.592 1101.89 967.8 1095.58 971.55L1014.11 1020.02V1000.02L1095.58 951.55C1100.28 948.755 1104.29 944.435 1107.61 938.592C1111.05 932.546 1112.77 926.79 1112.77 921.324C1112.77 915.857 1111.05 912.213 1107.61 910.392C1104.29 908.369 1100.28 908.755 1095.58 911.55L1014.11 960.02V940.02L1078.4 901.776C1083.09 898.98 1087.1 894.661 1090.43 888.817C1093.86 882.772 1095.58 877.016 1095.58 871.55C1095.58 866.083 1093.86 862.439 1090.43 860.617C1087.1 858.594 1083.09 858.98 1078.4 861.776L1005.52 905.133V1025.13L988.329 1035.36V895.359L1078.4 841.776C1084.7 838.026 1090.43 836.417 1095.58 836.95C1100.85 837.414 1105.04 839.792 1108.13 844.085C1111.22 848.244 1112.77 853.99 1112.77 861.324C1112.77 865.457 1112.26 869.764 1111.22 874.244C1110.19 878.591 1108.76 882.91 1106.93 887.201C1113.69 885.845 1119.19 887.373 1123.43 891.784C1127.78 895.993 1129.96 902.431 1129.96 911.098ZM1274.58 865.057L1150.14 939.092V799.092L1274.58 725.057V745.057L1167.33 808.866V908.866L1274.58 845.057V865.057ZM1259.97 813.749L1175.92 863.753V843.753L1259.97 793.749V813.749ZM1434.72 769.787L1411.51 783.592L1375.42 765.066L1322.65 796.46V776.66L1391.75 735.552C1396.56 732.688 1400.91 728.765 1404.81 723.78C1408.7 718.662 1411.8 713.155 1414.09 707.258C1416.38 701.228 1417.53 695.48 1417.53 690.013C1417.53 684.413 1416.38 680.028 1414.09 676.858C1411.8 673.688 1408.7 671.929 1404.81 671.58C1400.91 671.231 1396.56 672.488 1391.75 675.352L1313.02 722.186V842.186L1295.84 852.412V712.412L1391.75 655.352C1399.65 650.648 1406.87 648.62 1413.4 649.267C1419.93 649.781 1425.09 652.714 1428.87 658.064C1432.77 663.346 1434.72 670.587 1434.72 679.787C1434.72 688.054 1433.11 696.675 1429.9 705.65C1426.81 714.558 1422.51 722.981 1417.01 730.92C1411.63 738.657 1405.5 745.238 1398.62 750.661L1434.72 769.787Z" fill="white"/>
<path d="M812.51 1139.96V1149.96L833.293 1137.6L818.579 1129.27L812.51 1139.96ZM789.306 1153.77L783.203 1164.44L785.725 1165.9L789.306 1163.77V1153.77ZM727.944 1118.27L734.046 1107.6L728.876 1104.61L722.919 1113.15L727.944 1118.27ZM689.786 1172.97L684.761 1167.85L681.192 1172.97V1178.09L689.786 1172.97ZM689.786 1212.97V1222.97L698.38 1217.86V1207.86L689.786 1212.97ZM672.598 1223.2L664.004 1228.31V1238.31L672.598 1233.2V1223.2ZM672.598 1083.2V1073.2L664.004 1078.31V1088.31L672.598 1083.2ZM689.786 1072.97L698.38 1067.86V1057.86L689.786 1062.97V1072.97ZM689.786 1150.97L681.192 1156.09V1175.46L694.763 1156.16L689.786 1150.97ZM784.149 1016.83V1006.83L781.407 1008.46L779.172 1011.64L784.149 1016.83ZM809.244 1001.9L814.256 1007.05L835.952 976.014L809.244 991.904V1001.9ZM741.007 1099.5L735.995 1094.36L727.764 1106.13L734.937 1110.19L741.007 1099.5ZM812.51 1139.96V1129.96L789.306 1143.77V1153.77V1163.77L812.51 1149.96V1139.96ZM789.306 1153.77L795.408 1143.09L734.046 1107.6L727.944 1118.27L721.842 1128.94L783.203 1164.44L789.306 1153.77ZM727.944 1118.27L722.919 1113.15L684.761 1167.85L689.786 1172.97L694.811 1178.1L732.969 1123.4L727.944 1118.27ZM689.786 1172.97L681.192 1178.09V1218.09L689.786 1212.97L698.38 1207.86V1167.86L689.786 1172.97ZM689.786 1212.97V1202.97L672.598 1213.2V1223.2V1233.2L689.786 1222.97V1212.97ZM672.598 1223.2L681.192 1218.09V1078.09L672.598 1083.2L664.004 1088.31V1228.31L672.598 1223.2ZM672.598 1083.2V1093.2L689.786 1082.97V1072.97V1062.97L672.598 1073.2V1083.2ZM689.786 1072.97L681.192 1078.09V1156.09L689.786 1150.97L698.38 1145.86V1067.86L689.786 1072.97ZM689.786 1150.97L694.763 1156.16L789.126 1022.02L784.149 1016.83L779.172 1011.64L684.809 1145.78L689.786 1150.97ZM784.149 1016.83V1026.83L809.244 1011.9V1001.9V991.904L784.149 1006.83V1016.83ZM809.244 1001.9L804.232 996.762L735.995 1094.36L741.007 1099.5L746.019 1104.64L814.256 1007.05L809.244 1001.9ZM741.007 1099.5L734.937 1110.19L806.44 1150.65L812.51 1139.96L818.579 1129.27L747.077 1088.81L741.007 1099.5ZM954.583 1035.64L947.672 1033.8L947.662 1033.82L947.653 1033.85L954.583 1035.64ZM821.375 1134.69L812.781 1139.8V1149.8L821.375 1144.69V1134.69ZM821.375 1114.69V1104.69L812.781 1109.8V1119.8L821.375 1114.69ZM930.348 1047.25L933.417 1054.77L933.519 1054.66L933.62 1054.55L930.348 1047.25ZM939.629 1034.33L933.283 1031.37L933.212 1031.5L933.144 1031.63L939.629 1034.33ZM943.239 1012.19L951.833 1007.07V997.072L943.239 1002.19V1012.19ZM842.688 1065.21L838.228 1076.41L838.257 1076.41L838.286 1076.41L842.688 1065.21ZM827.219 1056.41L819.838 1065.92L819.855 1065.95L819.873 1065.97L827.219 1056.41ZM821.375 994.687V984.687L812.781 989.799V999.799L821.375 994.687ZM838.563 984.461L847.157 979.348V969.348L838.563 974.461V984.461ZM842.001 1037.62L834.539 1047.02L834.566 1047.05L834.593 1047.09L842.001 1037.62ZM851.282 1042.89L846.925 1054.11L846.971 1054.11L847.018 1054.11L851.282 1042.89ZM943.239 992.185V1002.19L951.833 997.072V987.072L943.239 992.185ZM943.239 922.185V912.185L934.645 917.298V927.298L943.239 922.185ZM960.427 911.959L969.021 906.846V896.846L960.427 901.959V911.959ZM960.427 1011.96L951.833 1017.07C951.833 1022.18 950.521 1027.62 947.672 1033.8L954.583 1035.64L961.494 1037.47C966.436 1026.75 969.021 1016.41 969.021 1006.85L960.427 1011.96ZM954.583 1035.64L947.653 1033.85C944.82 1040.03 940.846 1046.19 935.435 1052.39L939.114 1059.24L942.793 1066.09C950.444 1057.32 956.783 1047.75 961.513 1037.43L954.583 1035.64ZM939.114 1059.24L935.435 1052.39C930.158 1058.44 924.212 1063.5 917.456 1067.52V1077.52V1087.52C926.514 1082.14 935.006 1075.01 942.793 1066.09L939.114 1059.24ZM917.456 1077.52V1067.52L821.375 1124.69V1134.69V1144.69L917.456 1087.52V1077.52ZM821.375 1134.69L829.969 1129.57V1109.57L821.375 1114.69L812.781 1119.8V1139.8L821.375 1134.69ZM821.375 1114.69V1124.69L917.456 1067.52V1057.52V1047.52L821.375 1104.69V1114.69ZM917.456 1057.52V1067.52C923.072 1064.18 928.425 1059.96 933.417 1054.77L930.348 1047.25L927.278 1039.74C924.478 1042.65 921.237 1045.27 917.456 1047.52V1057.52ZM930.348 1047.25L933.62 1054.55C938.5 1049.31 942.783 1043.48 946.114 1037.04L939.629 1034.33L933.144 1031.63C931.892 1034.05 929.988 1036.83 927.075 1039.95L930.348 1047.25ZM939.629 1034.33L945.976 1037.3C949.591 1030.54 951.833 1023.55 951.833 1017.07L943.239 1022.19L934.645 1027.3C934.645 1028.02 934.48 1029.13 933.283 1031.37L939.629 1034.33ZM943.239 1022.19L951.833 1017.07V1007.07L943.239 1012.19L934.645 1017.3V1027.3L943.239 1022.19ZM943.239 1012.19V1002.19L864.345 1049.12V1059.12V1069.12L943.239 1022.19V1012.19ZM864.345 1059.12V1049.12C857.924 1052.94 852.237 1054.51 847.091 1054L842.688 1065.21L838.286 1076.41C846.202 1077.2 854.953 1074.71 864.345 1069.12V1059.12ZM842.688 1065.21L847.148 1054.01C841.911 1053.42 837.745 1051.05 834.565 1046.85L827.219 1056.41L819.873 1065.97C824.485 1072.07 830.631 1075.56 838.228 1076.41L842.688 1065.21ZM827.219 1056.41L834.6 1046.9C831.53 1042.73 829.969 1037.04 829.969 1029.57L821.375 1034.69L812.781 1039.8C812.781 1050.73 815.116 1059.52 819.838 1065.92L827.219 1056.41ZM821.375 1034.69L829.969 1029.57V989.574L821.375 994.687L812.781 999.799V1039.8L821.375 1034.69ZM821.375 994.687V1004.69L838.563 994.461V984.461V974.461L821.375 984.687V994.687ZM838.563 984.461L829.969 989.574V1029.57L838.563 1024.46L847.157 1019.35V979.348L838.563 984.461ZM838.563 1024.46L829.969 1029.57C829.969 1036.75 831.492 1042.62 834.539 1047.02L842.001 1037.62L849.462 1028.21C847.926 1026 847.157 1023.11 847.157 1019.35L838.563 1024.46ZM842.001 1037.62L834.593 1047.09C837.626 1051.29 841.769 1053.64 846.925 1054.11L851.282 1042.89L855.64 1031.68C853.003 1031.45 850.959 1030.28 849.408 1028.14L842.001 1037.62ZM851.282 1042.89L847.018 1054.11C852.351 1054.49 858.178 1052.79 864.345 1049.12V1039.12V1029.12C861.116 1031.04 858.235 1031.86 855.546 1031.67L851.282 1042.89ZM864.345 1039.12V1049.12L943.239 1002.19V992.185V982.185L864.345 1029.12V1039.12ZM943.239 992.185L951.833 987.072V917.072L943.239 922.185L934.645 927.298V997.298L943.239 992.185ZM943.239 922.185V932.185L960.427 921.959V911.959V901.959L943.239 912.185V922.185ZM960.427 911.959L951.833 917.072V1017.07L960.427 1011.96L969.021 1006.85V906.846L960.427 911.959ZM1125.32 934.059L1132.69 934.82L1132.71 934.766L1132.73 934.711L1125.32 934.059ZM1112.77 955.924L1108.42 949.888L1108.39 949.934L1108.35 949.979L1112.77 955.924ZM1014.11 1020.02L1005.52 1025.13V1035.13L1014.11 1030.02V1020.02ZM1014.11 1000.02V990.02L1005.52 995.133V1005.13L1014.11 1000.02ZM1107.61 938.592L1113.69 942.047V942.047L1107.61 938.592ZM1107.61 910.392L1101.44 921.018L1101.54 921.08L1101.64 921.135L1107.61 910.392ZM1014.11 960.02L1005.52 965.133V975.133L1014.11 970.02V960.02ZM1014.11 940.02V930.02L1005.52 935.133V945.133L1014.11 940.02ZM1090.43 888.817L1084.35 885.362L1090.43 888.817ZM1090.43 860.617L1084.25 871.244L1084.35 871.305L1084.45 871.361L1090.43 860.617ZM1005.52 905.133V895.133L996.923 900.246V910.246L1005.52 905.133ZM1005.52 1025.13V1035.13L1014.11 1030.02V1020.02L1005.52 1025.13ZM988.329 1035.36L979.735 1040.47V1050.47L988.329 1045.36V1035.36ZM988.329 895.359V885.359L979.735 890.472V900.472L988.329 895.359ZM1095.58 836.95L1091.16 848.155L1091.2 848.159L1091.23 848.162L1095.58 836.95ZM1108.13 844.085L1100.72 853.556L1100.74 853.585L1100.76 853.614L1108.13 844.085ZM1111.22 874.244L1119.41 872.437L1119.42 872.381L1119.43 872.325L1111.22 874.244ZM1106.93 887.201L1099.78 885.908L1093.57 900.438L1104.17 898.313L1106.93 887.201ZM1123.43 891.784L1116.43 901.747L1116.48 901.804L1116.54 901.859L1123.43 891.784ZM1129.96 911.098L1121.37 916.211C1121.37 921.823 1120.2 927.492 1117.91 933.406L1125.32 934.059L1132.73 934.711C1136.62 924.678 1138.55 915.04 1138.55 905.985L1129.96 911.098ZM1125.32 934.059L1117.95 933.298C1115.61 939.231 1112.47 944.71 1108.42 949.888L1112.77 955.924L1117.12 961.96C1123.61 953.665 1128.84 944.568 1132.69 934.82L1125.32 934.059ZM1112.77 955.924L1108.35 949.979C1104.59 954.835 1100.41 958.68 1095.58 961.55V971.55V981.55C1103.36 976.92 1110.64 970.348 1117.19 961.868L1112.77 955.924ZM1095.58 971.55V961.55L1014.11 1010.02V1020.02V1030.02L1095.58 981.55V971.55ZM1014.11 1020.02L1022.71 1014.91V994.907L1014.11 1000.02L1005.52 1005.13V1025.13L1014.11 1020.02ZM1014.11 1000.02V1010.02L1095.58 961.55V951.55V941.55L1014.11 990.02V1000.02ZM1095.58 951.55V961.55C1102.56 957.398 1108.76 950.724 1113.69 942.047L1107.61 938.592L1101.54 935.136C1099.83 938.146 1098 940.111 1095.58 941.55V951.55ZM1107.61 938.592L1113.69 942.047C1118.68 933.278 1121.37 924.431 1121.37 916.211L1112.77 921.324L1104.18 926.437C1104.18 929.15 1103.43 931.815 1101.54 935.136L1107.61 938.592ZM1112.77 921.324L1121.37 916.211C1121.37 907.98 1118.67 902.339 1113.59 899.648L1107.61 910.392L1101.64 921.135C1103.44 922.087 1104.18 923.735 1104.18 926.437L1112.77 921.324ZM1107.61 910.392L1113.79 899.765C1108.88 896.776 1102.66 897.341 1095.58 901.55V911.55V921.55C1097.91 920.168 1099.7 919.961 1101.44 921.018L1107.61 910.392ZM1095.58 911.55V901.55L1014.11 950.02V960.02V970.02L1095.58 921.55V911.55ZM1014.11 960.02L1022.71 954.907V934.907L1014.11 940.02L1005.52 945.133V965.133L1014.11 960.02ZM1014.11 940.02V950.02L1078.4 911.776V901.776V891.776L1014.11 930.02V940.02ZM1078.4 901.776V911.776C1085.37 907.624 1091.57 900.95 1096.5 892.273L1090.43 888.817L1084.35 885.362C1082.64 888.372 1080.81 890.337 1078.4 891.776V901.776ZM1090.43 888.817L1096.5 892.273C1101.49 883.504 1104.18 874.657 1104.18 866.437L1095.58 871.55L1086.99 876.663C1086.99 879.376 1086.24 882.041 1084.35 885.362L1090.43 888.817ZM1095.58 871.55L1104.18 866.437C1104.18 858.206 1101.48 852.565 1096.4 849.874L1090.43 860.617L1084.45 871.361C1086.25 872.313 1086.99 873.961 1086.99 876.663L1095.58 871.55ZM1090.43 860.617L1096.61 849.991C1091.7 847.002 1085.47 847.567 1078.4 851.776V861.776V871.776C1080.72 870.394 1082.51 870.187 1084.25 871.244L1090.43 860.617ZM1078.4 861.776V851.776L1005.52 895.133V905.133V915.133L1078.4 871.776V861.776ZM1005.52 905.133L996.923 910.246V1030.25L1005.52 1025.13L1014.11 1020.02V900.02L1005.52 905.133ZM1005.52 1025.13V1015.13L988.329 1025.36V1035.36V1045.36L1005.52 1035.13V1025.13ZM988.329 1035.36L996.923 1030.25V890.246L988.329 895.359L979.735 900.472V1040.47L988.329 1035.36ZM988.329 895.359V905.359L1078.4 851.776V841.776V831.776L988.329 885.359V895.359ZM1078.4 841.776V851.776C1083.22 848.906 1087.41 847.768 1091.16 848.155L1095.58 836.95L1100 825.744C1093.45 825.067 1086.18 827.146 1078.4 831.776V841.776ZM1095.58 836.95L1091.23 848.162C1095.24 848.515 1098.37 850.294 1100.72 853.556L1108.13 844.085L1115.54 834.613C1111.71 829.29 1106.47 826.313 1099.93 825.737L1095.58 836.95ZM1108.13 844.085L1100.76 853.614C1103.01 856.643 1104.18 860.825 1104.18 866.437L1112.77 861.324L1121.37 856.211C1121.37 847.156 1119.43 839.845 1115.5 834.556L1108.13 844.085ZM1112.77 861.324L1104.18 866.437C1104.18 869.586 1103.79 872.819 1103.02 876.163L1111.22 874.244L1119.43 872.325C1120.72 866.709 1121.37 861.328 1121.37 856.211L1112.77 861.324ZM1111.22 874.244L1103.04 876.052C1102.25 879.394 1101.16 882.669 1099.78 885.908L1106.93 887.201L1114.08 888.493C1116.36 883.151 1118.14 877.788 1119.41 872.437L1111.22 874.244ZM1106.93 887.201L1104.17 898.313C1109.17 897.309 1113.21 898.398 1116.43 901.747L1123.43 891.784L1130.43 881.82C1125.17 876.348 1118.2 874.381 1109.69 876.089L1106.93 887.201ZM1123.43 891.784L1116.54 901.859C1119.76 904.974 1121.37 909.646 1121.37 916.211L1129.96 911.098L1138.55 905.985C1138.55 895.216 1135.81 887.012 1130.32 881.709L1123.43 891.784ZM1274.58 865.057V875.057L1283.18 869.944V859.944L1274.58 865.057ZM1150.14 939.092L1141.55 944.205V954.205L1150.14 949.092V939.092ZM1150.14 799.092V789.092L1141.55 794.205V804.205L1150.14 799.092ZM1274.58 725.057L1283.18 719.944V709.944L1274.58 715.057V725.057ZM1274.58 745.057V755.057L1283.18 749.944V739.944L1274.58 745.057ZM1167.33 808.866V798.866L1158.73 803.979V813.979L1167.33 808.866ZM1167.33 908.866L1158.73 913.979V923.979L1167.33 918.866V908.866ZM1274.58 845.057L1283.18 839.944V829.944L1274.58 835.057V845.057ZM1259.97 813.749V823.749L1268.57 818.636V808.636L1259.97 813.749ZM1175.92 863.753L1167.33 868.866V878.866L1175.92 873.753V863.753ZM1175.92 843.753V833.753L1167.33 838.866V848.866L1175.92 843.753ZM1259.97 793.749L1268.57 788.636V778.636L1259.97 783.749V793.749ZM1274.58 865.057V855.057L1150.14 929.092V939.092V949.092L1274.58 875.057V865.057ZM1150.14 939.092L1158.73 933.979V793.979L1150.14 799.092L1141.55 804.205V944.205L1150.14 939.092ZM1150.14 799.092V809.092L1274.58 735.057V725.057V715.057L1150.14 789.092V799.092ZM1274.58 725.057L1265.99 730.17V750.17L1274.58 745.057L1283.18 739.944V719.944L1274.58 725.057ZM1274.58 745.057V735.057L1167.33 798.866V808.866V818.866L1274.58 755.057V745.057ZM1167.33 808.866L1158.73 813.979V913.979L1167.33 908.866L1175.92 903.753V803.753L1167.33 808.866ZM1167.33 908.866V918.866L1274.58 855.057V845.057V835.057L1167.33 898.866V908.866ZM1274.58 845.057L1265.99 850.17V870.17L1274.58 865.057L1283.18 859.944V839.944L1274.58 845.057ZM1259.97 813.749V803.749L1175.92 853.753V863.753V873.753L1259.97 823.749V813.749ZM1175.92 863.753L1184.52 858.64V838.64L1175.92 843.753L1167.33 848.866V868.866L1175.92 863.753ZM1175.92 843.753V853.753L1259.97 803.749V793.749V783.749L1175.92 833.753V843.753ZM1259.97 793.749L1251.38 798.862V818.862L1259.97 813.749L1268.57 808.636V788.636L1259.97 793.749ZM1434.72 769.787V779.787L1455.97 767.141L1440.69 759.044L1434.72 769.787ZM1411.51 783.592L1405.58 794.36L1408.07 795.637L1411.51 793.592V783.592ZM1375.42 765.066L1381.34 754.299L1378.85 753.021L1375.42 755.066V765.066ZM1322.65 796.46L1314.06 801.573V811.573L1322.65 806.46V796.46ZM1322.65 776.66V766.66L1314.06 771.773V781.773L1322.65 776.66ZM1404.81 723.78L1409.17 729.807L1409.25 729.705L1409.32 729.601L1404.81 723.78ZM1414.09 707.258L1421.5 707.921L1421.52 707.851L1421.55 707.78L1414.09 707.258ZM1414.09 676.858L1406.68 686.335V686.335L1414.09 676.858ZM1404.81 671.58L1409.17 660.368V660.368L1404.81 671.58ZM1313.02 722.186V712.186L1304.43 717.299V727.299L1313.02 722.186ZM1313.02 842.186V852.186L1321.62 847.073V837.073L1313.02 842.186ZM1295.84 852.412L1287.24 857.525V867.525L1295.84 862.412V852.412ZM1295.84 712.412V702.412L1287.24 707.525V717.525L1295.84 712.412ZM1413.4 649.267L1409 660.475L1409.05 660.479L1409.1 660.483L1413.4 649.267ZM1428.87 658.064L1421.43 667.499L1421.46 667.539L1421.49 667.578L1428.87 658.064ZM1429.9 705.65L1422.3 705.5L1422.27 705.583L1422.25 705.667L1429.9 705.65ZM1417.01 730.92L1422.05 736.025L1422.06 736.006L1422.08 735.987L1417.01 730.92ZM1398.62 750.661L1397.21 741.638L1380.39 754.908L1392.65 761.405L1398.62 750.661ZM1434.72 769.787V759.787L1411.51 773.592V783.592V793.592L1434.72 779.787V769.787ZM1411.51 783.592L1417.44 772.824L1381.34 754.299L1375.42 765.066L1369.49 775.834L1405.58 794.36L1411.51 783.592ZM1375.42 765.066V755.066L1322.65 786.46V796.46V806.46L1375.42 775.066V765.066ZM1322.65 796.46L1331.24 791.347V771.547L1322.65 776.66L1314.06 781.773V801.573L1322.65 796.46ZM1322.65 776.66V786.66L1391.75 745.552V735.552V725.552L1322.65 766.66V776.66ZM1391.75 735.552V745.552C1397.99 741.838 1403.86 736.591 1409.17 729.807L1404.81 723.78L1400.45 717.753C1397.96 720.938 1395.13 723.539 1391.75 725.552V735.552ZM1404.81 723.78L1409.32 729.601C1414.39 722.942 1418.49 715.667 1421.5 707.921L1414.09 707.258L1406.68 706.595C1405.11 710.642 1403.01 714.383 1400.29 717.959L1404.81 723.78ZM1414.09 707.258L1421.55 707.78C1424.6 699.763 1426.12 692.076 1426.12 684.9L1417.53 690.013L1408.93 695.126C1408.93 698.883 1408.16 702.693 1406.63 706.736L1414.09 707.258ZM1417.53 690.013L1426.12 684.9C1426.12 677.637 1424.62 671.695 1421.5 667.381L1414.09 676.858L1406.68 686.335C1408.15 688.361 1408.93 691.189 1408.93 695.126L1417.53 690.013ZM1414.09 676.858L1421.5 667.381C1418.46 663.186 1414.32 660.83 1409.17 660.368L1404.81 671.58L1400.45 682.792C1403.09 683.028 1405.13 684.19 1406.68 686.335L1414.09 676.858ZM1404.81 671.58L1409.17 660.368C1403.86 659.894 1397.99 661.638 1391.75 665.352V675.352V685.352C1395.13 683.339 1397.96 682.569 1400.45 682.792L1404.81 671.58ZM1391.75 675.352V665.352L1313.02 712.186V722.186V732.186L1391.75 685.352V675.352ZM1313.02 722.186L1304.43 727.299V847.299L1313.02 842.186L1321.62 837.073V717.073L1313.02 722.186ZM1313.02 842.186V832.186L1295.84 842.412V852.412V862.412L1313.02 852.186V842.186ZM1295.84 852.412L1304.43 847.299V707.299L1295.84 712.412L1287.24 717.525V857.525L1295.84 852.412ZM1295.84 712.412V722.412L1391.75 665.352V655.352V645.352L1295.84 702.412V712.412ZM1391.75 655.352V665.352C1398.17 661.532 1403.85 659.964 1409 660.475L1413.4 649.267L1417.8 638.06C1409.89 637.275 1401.14 639.764 1391.75 645.352V655.352ZM1413.4 649.267L1409.1 660.483C1414.33 660.895 1418.41 663.213 1421.43 667.499L1428.87 658.064L1436.31 648.629C1431.78 642.214 1425.54 638.668 1417.71 638.051L1413.4 649.267ZM1428.87 658.064L1421.49 667.578C1424.56 671.739 1426.12 677.429 1426.12 684.9L1434.72 679.787L1443.31 674.674C1443.31 663.745 1440.97 654.952 1436.25 648.55L1428.87 658.064ZM1434.72 679.787L1426.12 684.9C1426.12 691.596 1424.84 698.417 1422.3 705.5L1429.9 705.65L1437.5 705.801C1441.39 694.933 1443.31 684.511 1443.31 674.674L1434.72 679.787ZM1429.9 705.65L1422.25 705.667C1419.76 712.81 1416.36 719.491 1411.95 725.852L1417.01 730.92L1422.08 735.987C1428.67 726.47 1433.85 716.305 1437.56 705.634L1429.9 705.65ZM1417.01 730.92L1411.97 725.814C1407.72 731.932 1402.84 737.195 1397.21 741.638L1398.62 750.661L1400.03 759.685C1408.15 753.28 1415.54 745.382 1422.05 736.025L1417.01 730.92ZM1398.62 750.661L1392.65 761.405L1428.74 780.531L1434.72 769.787L1440.69 759.044L1404.59 739.918L1398.62 750.661Z" fill="white" mask="url(#path-76-outside-1_0_1)"/>
</g>
<g filter="url(#filter16_i_0_1)">
<path d="M1084.41 1789.97C1087.32 1784.11 1092.01 1780.95 1094.91 1782.95C1097.8 1784.95 1097.8 1791.3 1094.91 1797.14L1065.01 1857.53C1063.66 1860.26 1063.99 1862.04 1064.31 1862.86C1064.62 1863.68 1065.44 1864.86 1067.37 1863.57C1068.24 1862.99 1069.07 1861.98 1069.7 1860.71L1111.61 1776.05C1115.05 1769.12 1119.61 1763.51 1124.45 1760.28C1128.25 1757.74 1131.87 1756.85 1134.91 1757.7C1137.71 1758.51 1139.9 1760.76 1141.23 1764.21C1142.55 1767.69 1142.96 1772.13 1142.36 1777.09C1141.73 1782.45 1139.97 1788.16 1137.28 1793.59L1125.75 1816.89C1124.37 1819.67 1124.71 1821.45 1125.02 1822.27C1125.34 1823.08 1126.15 1824.27 1128.08 1822.98L1133.29 1819.5C1137.39 1816.76 1140.71 1819.03 1140.71 1824.57C1140.71 1830.11 1137.39 1836.81 1133.29 1839.55L1128.01 1843.08C1124.21 1845.62 1120.61 1846.5 1117.57 1845.65C1114.77 1844.84 1112.58 1842.59 1111.24 1839.14C1109.93 1835.66 1109.52 1831.22 1110.11 1826.26C1110.74 1820.9 1112.5 1815.19 1115.19 1809.76L1126.75 1786.42C1128.12 1783.65 1127.79 1781.86 1127.47 1781.05C1127.15 1780.23 1126.34 1779.05 1124.41 1780.33C1123.54 1780.92 1122.7 1781.93 1122.07 1783.2L1080.16 1867.86C1076.73 1874.79 1072.17 1880.39 1067.33 1883.63C1063.53 1886.17 1059.93 1887.04 1056.89 1886.19C1055.11 1885.7 1053.59 1884.61 1052.36 1883L1049.8 1888.17C1046.37 1895.1 1041.81 1900.7 1036.97 1903.94L1036.6 1904.18C1032.8 1906.72 1029.2 1907.6 1026.16 1906.75C1023.36 1905.94 1021.17 1903.69 1019.84 1900.25C1018.52 1896.76 1018.11 1892.32 1018.7 1887.36C1019.33 1882 1021.1 1876.29 1023.79 1870.86L1035.34 1847.52C1036.71 1844.75 1036.38 1842.97 1036.06 1842.15C1035.75 1841.33 1034.93 1840.15 1033 1841.44L1025.1 1846.72C1025.51 1849.33 1025.53 1852.27 1025.16 1855.4C1024.53 1860.76 1022.77 1866.48 1020.08 1871.91L993.353 1925.89C989.923 1932.82 985.36 1938.42 980.52 1941.66C970.654 1948.25 962.606 1942.77 962.624 1929.4C962.624 1927.88 962.876 1926.27 963.324 1924.68C963.822 1922.42 963.919 1920.6 963.626 1919.83C963.313 1919.01 962.504 1917.81 960.566 1919.11L944.281 1930.03C940.485 1932.58 936.874 1933.47 933.854 1932.6C931.056 1931.81 928.888 1929.54 927.545 1926.09C926.228 1922.62 925.842 1918.16 926.423 1913.19C927.071 1907.8 928.831 1902.07 931.519 1896.63C934.942 1889.7 939.5 1884.09 944.344 1880.84L1001.85 1842.28C1002.16 1842.02 1002.47 1841.78 1002.79 1841.57L1004.12 1840.68C1004.13 1840.67 1004.14 1840.66 1004.15 1840.66L1021.36 1829.15C1021.36 1829.15 1021.36 1829.16 1021.36 1829.16L1033 1821.38C1036.8 1818.84 1040.42 1817.95 1043.46 1818.81C1046.26 1819.62 1048.45 1821.86 1049.79 1825.31C1051.1 1828.79 1051.51 1833.23 1050.92 1838.19C1050.29 1843.55 1048.52 1849.26 1045.84 1854.7L1034.3 1878.02C1032.93 1880.79 1033.26 1882.58 1033.58 1883.39C1033.89 1884.21 1034.71 1885.39 1036.64 1884.11L1037.01 1883.86C1037.88 1883.28 1038.71 1882.27 1039.34 1880.99L1054.5 1850.39C1054.51 1850.35 1054.51 1850.35 1054.53 1850.31L1084.41 1789.97ZM1004.65 1860.38C1004.26 1860.67 1003.88 1860.95 1003.49 1861.21L944.319 1900.88C943.428 1901.48 942.603 1902.51 941.987 1903.76C940.623 1906.52 940.948 1908.31 941.261 1909.13C941.574 1909.95 942.383 1911.15 944.32 1909.85L960.631 1898.91C964.428 1896.37 968.038 1895.47 971.059 1896.34C973.857 1897.13 976.025 1899.41 977.368 1902.86C978.685 1906.32 979.072 1910.79 978.49 1915.76C978.296 1917.37 978.001 1919.02 977.613 1920.67C978.015 1922.06 979.166 1922.48 980.52 1921.58C981.392 1920.99 982.227 1919.98 982.857 1918.71L1009.58 1864.73C1010.95 1861.96 1010.62 1860.18 1010.3 1859.36C1009.99 1858.54 1009.17 1857.36 1007.24 1858.65L1004.65 1860.38Z" fill="white"/>
</g>
<g filter="url(#filter17_d_0_1)">
<path d="M936.517 1411.94L894.948 1435.94C892.657 1437.26 890.691 1439.33 889.049 1442.14C887.408 1444.96 886.577 1447.69 886.555 1450.34L886.161 1498.33L875.076 1504.73L875.47 1456.74C875.504 1452.55 876.385 1448.31 878.112 1444C879.914 1439.56 882.3 1435.51 885.273 1431.84C888.245 1428.09 891.505 1425.18 895.053 1423.14L936.622 1399.14L936.517 1411.94ZM1015.83 1426.66C1015.79 1430.75 1014.87 1435.02 1013.07 1439.46C1011.35 1443.85 1009 1447.88 1006.02 1451.55C1003.12 1455.26 999.864 1458.17 996.243 1460.26L951.903 1485.86L952.008 1473.06L996.348 1447.46C998.639 1446.13 1000.61 1444.06 1002.25 1441.25C1003.89 1438.43 1004.72 1435.7 1004.74 1433.06L1004.77 1429.86L974.283 1447.46C970.071 1449.89 966.124 1451.28 962.444 1451.62C958.838 1451.83 955.644 1451.13 952.863 1449.51C950.155 1447.84 948.042 1445.37 946.525 1442.08C945.008 1438.71 944.269 1434.59 944.309 1429.73L944.598 1394.53L955.683 1388.13L955.394 1423.33C955.361 1427.43 956.18 1430.69 957.852 1433.12C959.598 1435.43 961.904 1436.77 964.769 1437.15C967.635 1437.45 970.841 1436.62 974.388 1434.66L1004.87 1417.06L1005.34 1359.46L1016.43 1353.06L1015.83 1426.66ZM1105.8 1301.46L1071.52 1391.32L1058.88 1398.61L1025.99 1347.54L1038.95 1340.05L1065.31 1381.65L1092.83 1308.95L1105.8 1301.46ZM1182.09 1279.71C1182.06 1283.8 1181.14 1288.07 1179.34 1292.51C1177.61 1296.9 1175.26 1300.98 1172.29 1304.73C1169.39 1308.36 1166.13 1311.22 1162.51 1313.31L1120.05 1337.82C1121.57 1340.68 1123.84 1342.43 1126.85 1343.07C1129.93 1343.66 1133.4 1342.85 1137.24 1340.63L1173.49 1319.71L1173.38 1332.51L1137.14 1353.43C1132.92 1355.87 1128.98 1357.25 1125.3 1357.59C1121.69 1357.81 1118.5 1357.1 1115.72 1355.48C1113.01 1353.82 1110.9 1351.34 1109.38 1348.06C1107.86 1344.69 1107.12 1340.57 1107.16 1335.71C1107.2 1330.84 1108.02 1325.87 1109.6 1320.79C1111.19 1315.63 1113.36 1310.64 1116.12 1305.82C1118.96 1300.96 1122.19 1296.58 1125.83 1292.7C1129.54 1288.69 1133.5 1285.47 1137.71 1283.04L1162.88 1268.51C1166.5 1266.42 1169.74 1265.56 1172.61 1265.95C1175.55 1266.2 1177.85 1267.55 1179.52 1269.98C1181.27 1272.28 1182.13 1275.53 1182.09 1279.71ZM1162.61 1300.51C1164.91 1299.18 1166.87 1297.11 1168.51 1294.3C1170.15 1291.48 1170.99 1288.75 1171.01 1286.11C1171.03 1283.46 1170.23 1281.67 1168.62 1280.73C1167.01 1279.79 1165.06 1279.98 1162.77 1281.31L1137.61 1295.84C1134.36 1297.71 1131.36 1300.29 1128.61 1303.58C1125.93 1306.82 1123.7 1310.41 1121.9 1314.33C1120.1 1318.26 1118.97 1322.14 1118.5 1325.98L1162.61 1300.51ZM1203.68 1315.02L1192.59 1321.42L1193.17 1251.02L1234.74 1227.02C1238.95 1224.59 1242.86 1223.26 1246.47 1223.05C1250.15 1222.71 1253.34 1223.37 1256.05 1225.03C1258.83 1226.65 1260.98 1229.15 1262.5 1232.52C1264.01 1235.81 1264.75 1239.88 1264.71 1244.74L1264.42 1279.94L1253.34 1286.34L1253.63 1251.14C1253.66 1247.05 1252.84 1243.83 1251.17 1241.48C1249.5 1239.05 1247.19 1237.66 1244.25 1237.32C1241.39 1236.94 1238.18 1237.77 1234.63 1239.82L1204.15 1257.42L1203.68 1315.02Z" fill="black"/>
<path d="M936.517 1411.94L936.435 1421.94L945.095 1416.94L945.177 1406.94L936.517 1411.94ZM889.049 1442.14L882.984 1438.61L882.984 1438.61L889.049 1442.14ZM886.161 1498.33L886.079 1508.33L894.74 1503.33L894.822 1493.33L886.161 1498.33ZM875.076 1504.73L866.416 1509.73L866.334 1519.73L874.994 1514.73L875.076 1504.73ZM878.112 1444L870.728 1443.14L870.711 1443.18L870.694 1443.23L878.112 1444ZM885.273 1431.84L889.518 1438.02L889.588 1437.93L889.658 1437.84L885.273 1431.84ZM936.622 1399.14L945.282 1394.14L945.364 1384.14L936.704 1389.14L936.622 1399.14ZM936.517 1411.94L936.599 1401.94L895.03 1425.94L894.948 1435.94L894.866 1445.94L936.435 1421.94L936.517 1411.94ZM894.948 1435.94L895.03 1425.94C890.433 1428.59 886.258 1432.99 882.984 1438.61L889.049 1442.14L895.115 1445.68C895.161 1445.6 895.172 1445.59 895.145 1445.63C895.117 1445.67 895.066 1445.73 894.999 1445.8C894.932 1445.87 894.874 1445.92 894.837 1445.95C894.801 1445.98 894.807 1445.97 894.866 1445.94L894.948 1435.94ZM889.049 1442.14L882.984 1438.61C879.71 1444.23 877.938 1450.03 877.895 1455.34L886.555 1450.34L895.215 1445.34C895.216 1445.27 895.221 1445.26 895.214 1445.3C895.206 1445.35 895.19 1445.43 895.162 1445.52C895.134 1445.61 895.104 1445.69 895.084 1445.73C895.066 1445.77 895.069 1445.76 895.115 1445.68L889.049 1442.14ZM886.555 1450.34L877.895 1455.34L877.501 1503.33L886.161 1498.33L894.822 1493.33L895.215 1445.34L886.555 1450.34ZM886.161 1498.33L886.243 1488.33L875.158 1494.73L875.076 1504.73L874.994 1514.73L886.079 1508.33L886.161 1498.33ZM875.076 1504.73L883.736 1499.73L884.13 1451.74L875.47 1456.74L866.81 1461.74L866.416 1509.73L875.076 1504.73ZM875.47 1456.74L884.13 1451.74C884.151 1449.19 884.667 1446.93 885.53 1444.77L878.112 1444L870.694 1443.23C868.103 1449.69 866.857 1455.92 866.81 1461.74L875.47 1456.74ZM878.112 1444L885.496 1444.86C886.535 1442.3 887.847 1440.08 889.518 1438.02L885.273 1431.84L881.027 1425.66C876.753 1430.94 873.292 1436.83 870.728 1443.14L878.112 1444ZM885.273 1431.84L889.658 1437.84C891.237 1435.85 892.945 1434.31 894.971 1433.14L895.053 1423.14L895.135 1413.14C890.066 1416.06 885.254 1420.32 880.887 1425.84L885.273 1431.84ZM895.053 1423.14L894.971 1433.14L936.54 1409.14L936.622 1399.14L936.704 1389.14L895.135 1413.14L895.053 1423.14ZM936.622 1399.14L927.962 1404.14L927.857 1416.94L936.517 1411.94L945.177 1406.94L945.282 1394.14L936.622 1399.14ZM1013.07 1439.46L1005.69 1438.6L1005.65 1438.7L1005.61 1438.81L1013.07 1439.46ZM1006.02 1451.55L1001.78 1445.38L1001.66 1445.51L1001.55 1445.66L1006.02 1451.55ZM951.903 1485.86L943.242 1490.86L943.16 1500.86L951.821 1495.86L951.903 1485.86ZM952.008 1473.06L952.09 1463.06L943.429 1468.06L943.347 1478.06L952.008 1473.06ZM1002.25 1441.25L1008.31 1444.78L1008.31 1444.78L1002.25 1441.25ZM1004.77 1429.86L1013.43 1424.86L1013.51 1414.86L1004.85 1419.86L1004.77 1429.86ZM962.444 1451.62L958.822 1462.79L958.918 1462.78L959.015 1462.77L962.444 1451.62ZM952.863 1449.51L946.601 1460.06L946.641 1460.09L946.681 1460.11L952.863 1449.51ZM946.525 1442.08L938.508 1450.56L938.52 1450.59L938.532 1450.62L946.525 1442.08ZM944.598 1394.53L944.68 1384.53L936.02 1389.53L935.938 1399.53L944.598 1394.53ZM955.683 1388.13L964.343 1383.13L964.425 1373.13L955.765 1378.13L955.683 1388.13ZM957.852 1433.12L950.303 1442.44L950.366 1442.53L950.433 1442.62L957.852 1433.12ZM964.769 1437.15L960.16 1448.29L960.229 1448.3L960.299 1448.31L964.769 1437.15ZM974.388 1434.66L974.125 1444.76L974.216 1444.71L974.306 1444.66L974.388 1434.66ZM1004.87 1417.06L1004.79 1427.06L1013.45 1422.06L1013.53 1412.06L1004.87 1417.06ZM1005.34 1359.46L1005.43 1349.46L996.766 1354.46L996.684 1364.46L1005.34 1359.46ZM1016.43 1353.06L1025.09 1348.06L1025.17 1338.06L1016.51 1343.06L1016.43 1353.06ZM1015.83 1426.66L1007.17 1431.66C1007.15 1434 1006.65 1436.24 1005.69 1438.6L1013.07 1439.46L1020.46 1440.31C1023.1 1433.8 1024.44 1427.51 1024.49 1421.66L1015.83 1426.66ZM1013.07 1439.46L1005.61 1438.81C1004.65 1441.23 1003.42 1443.35 1001.78 1445.38L1006.02 1451.55L1010.27 1457.73C1014.58 1452.41 1018.04 1446.47 1020.54 1440.11L1013.07 1439.46ZM1006.02 1451.55L1001.55 1445.66C1000.13 1447.49 998.46 1449.02 996.325 1450.26L996.243 1460.26L996.161 1470.26C1001.27 1467.31 1006.12 1463.04 1010.49 1457.45L1006.02 1451.55ZM996.243 1460.26L996.325 1450.26L951.985 1475.86L951.903 1485.86L951.821 1495.86L996.161 1470.26L996.243 1460.26ZM951.903 1485.86L960.563 1480.86L960.668 1468.06L952.008 1473.06L943.347 1478.06L943.242 1490.86L951.903 1485.86ZM952.008 1473.06L951.926 1483.06L996.266 1457.46L996.348 1447.46L996.43 1437.46L952.09 1463.06L952.008 1473.06ZM996.348 1447.46L996.266 1457.46C1000.86 1454.8 1005.04 1450.4 1008.31 1444.78L1002.25 1441.25L996.181 1437.71C996.135 1437.79 996.123 1437.8 996.151 1437.77C996.179 1437.73 996.229 1437.66 996.296 1437.59C996.364 1437.52 996.421 1437.47 996.459 1437.44C996.495 1437.41 996.489 1437.42 996.43 1437.46L996.348 1447.46ZM1002.25 1441.25L1008.31 1444.78C1011.59 1439.17 1013.36 1433.36 1013.4 1428.06L1004.74 1433.06L996.08 1438.06C996.08 1438.12 996.075 1438.13 996.082 1438.09C996.089 1438.04 996.105 1437.97 996.134 1437.87C996.162 1437.78 996.192 1437.71 996.212 1437.66C996.23 1437.62 996.227 1437.63 996.181 1437.71L1002.25 1441.25ZM1004.74 1433.06L1013.4 1428.06L1013.43 1424.86L1004.77 1429.86L996.107 1434.86L996.08 1438.06L1004.74 1433.06ZM1004.77 1429.86L1004.85 1419.86L974.365 1437.46L974.283 1447.46L974.201 1457.46L1004.68 1439.86L1004.77 1429.86ZM974.283 1447.46L974.365 1437.46C971.244 1439.26 968.442 1440.22 965.873 1440.46L962.444 1451.62L959.015 1462.77C963.806 1462.33 968.897 1460.52 974.201 1457.46L974.283 1447.46ZM962.444 1451.62L966.066 1440.45C963.416 1440.6 961.09 1440.09 959.045 1438.9L952.863 1449.51L946.681 1460.11C950.199 1462.16 954.26 1463.06 958.822 1462.79L962.444 1451.62ZM952.863 1449.51L959.125 1438.95C957.155 1437.74 955.627 1435.95 954.517 1433.55L946.525 1442.08L938.532 1450.62C940.457 1454.78 943.155 1457.95 946.601 1460.06L952.863 1449.51ZM946.525 1442.08L954.541 1433.6C953.482 1431.25 952.94 1428.33 952.969 1424.73L944.309 1429.73L935.649 1434.73C935.599 1440.85 936.533 1446.18 938.508 1450.56L946.525 1442.08ZM944.309 1429.73L952.969 1424.73L953.258 1389.53L944.598 1394.53L935.938 1399.53L935.649 1434.73L944.309 1429.73ZM944.598 1394.53L944.516 1404.53L955.601 1398.13L955.683 1388.13L955.765 1378.13L944.68 1384.53L944.598 1394.53ZM955.683 1388.13L947.023 1393.13L946.734 1428.33L955.394 1423.33L964.055 1418.33L964.343 1383.13L955.683 1388.13ZM955.394 1423.33L946.734 1428.33C946.687 1434.1 947.858 1438.88 950.303 1442.44L957.852 1433.12L965.4 1423.8C964.502 1422.5 964.035 1420.75 964.055 1418.33L955.394 1423.33ZM957.852 1433.12L950.433 1442.62C952.879 1445.85 956.147 1447.75 960.16 1448.29L964.769 1437.15L969.378 1426.02C967.66 1425.79 966.317 1425 965.27 1423.62L957.852 1433.12ZM964.769 1437.15L960.299 1448.31C964.515 1448.75 969.186 1447.49 974.125 1444.76L974.388 1434.66L974.65 1424.56C972.496 1425.75 970.755 1426.16 969.239 1426L964.769 1437.15ZM974.388 1434.66L974.306 1444.66L1004.79 1427.06L1004.87 1417.06L1004.95 1407.06L974.47 1424.66L974.388 1434.66ZM1004.87 1417.06L1013.53 1412.06L1014 1354.46L1005.34 1359.46L996.684 1364.46L996.212 1422.06L1004.87 1417.06ZM1005.34 1359.46L1005.26 1369.46L1016.35 1363.06L1016.43 1353.06L1016.51 1343.06L1005.43 1349.46L1005.34 1359.46ZM1016.43 1353.06L1007.77 1358.06L1007.17 1431.66L1015.83 1426.66L1024.49 1421.66L1025.09 1348.06L1016.43 1353.06ZM1105.8 1301.46L1113.34 1301.92L1120.56 1282.99L1105.88 1291.46L1105.8 1301.46ZM1071.52 1391.32L1071.44 1401.32L1076.55 1398.37L1079.06 1391.78L1071.52 1391.32ZM1058.88 1398.61L1051.25 1407.81L1053.68 1411.57L1058.8 1408.61L1058.88 1398.61ZM1025.99 1347.54L1026.07 1337.54L1011.43 1345.99L1018.35 1356.74L1025.99 1347.54ZM1038.95 1340.05L1046.61 1330.89L1044.19 1327.08L1039.04 1330.05L1038.95 1340.05ZM1065.31 1381.65L1057.66 1390.82L1065.11 1402.57L1072.87 1382.07L1065.31 1381.65ZM1092.83 1308.95L1092.91 1298.95L1087.78 1301.91L1085.27 1308.54L1092.83 1308.95ZM1105.8 1301.46L1098.26 1301L1063.98 1390.85L1071.52 1391.32L1079.06 1391.78L1113.34 1301.92L1105.8 1301.46ZM1071.52 1391.32L1071.6 1381.32L1058.97 1388.61L1058.88 1398.61L1058.8 1408.61L1071.44 1401.32L1071.52 1391.32ZM1058.88 1398.61L1066.52 1389.42L1033.62 1338.35L1025.99 1347.54L1018.35 1356.74L1051.25 1407.81L1058.88 1398.61ZM1025.99 1347.54L1025.9 1357.54L1038.87 1350.05L1038.95 1340.05L1039.04 1330.05L1026.07 1337.54L1025.99 1347.54ZM1038.95 1340.05L1031.3 1349.22L1057.66 1390.82L1065.31 1381.65L1072.96 1372.49L1046.61 1330.89L1038.95 1340.05ZM1065.31 1381.65L1072.87 1382.07L1100.39 1309.36L1092.83 1308.95L1085.27 1308.54L1057.75 1381.24L1065.31 1381.65ZM1092.83 1308.95L1092.75 1318.95L1105.72 1311.46L1105.8 1301.46L1105.88 1291.46L1092.91 1298.95L1092.83 1308.95ZM1179.34 1292.51L1171.96 1291.65L1171.91 1291.75L1171.87 1291.86L1179.34 1292.51ZM1172.29 1304.73L1176.62 1310.8L1176.65 1310.77L1176.67 1310.73L1172.29 1304.73ZM1120.05 1337.82L1120.14 1327.82L1106.41 1335.75L1112.2 1346.64L1120.05 1337.82ZM1126.85 1343.07L1121.9 1354.14L1121.94 1354.15L1121.98 1354.16L1126.85 1343.07ZM1173.49 1319.71L1182.15 1314.71L1182.23 1304.71L1173.57 1309.71L1173.49 1319.71ZM1173.38 1332.51L1173.3 1342.5L1181.96 1337.5L1182.04 1327.51L1173.38 1332.51ZM1125.3 1357.59L1121.68 1368.76L1121.77 1368.76L1121.87 1368.75L1125.3 1357.59ZM1115.72 1355.48L1109.45 1366.04L1109.49 1366.06L1109.53 1366.09L1115.72 1355.48ZM1109.38 1348.06L1101.36 1356.54L1101.37 1356.57L1101.39 1356.59L1109.38 1348.06ZM1109.6 1320.79L1117.53 1320.14L1117.54 1320.1L1117.55 1320.06L1109.6 1320.79ZM1116.12 1305.82L1110.06 1302.28L1110.02 1302.35L1109.98 1302.43L1116.12 1305.82ZM1125.83 1292.7L1129.17 1299.92L1129.2 1299.88L1129.24 1299.84L1125.83 1292.7ZM1172.61 1265.95L1168 1277.08L1168.11 1277.1L1168.22 1277.11L1172.61 1265.95ZM1179.52 1269.98L1171.98 1279.3L1172.04 1279.39L1172.11 1279.48L1179.52 1269.98ZM1168.51 1294.3L1162.45 1290.76L1162.45 1290.76L1168.51 1294.3ZM1168.62 1280.73L1174.81 1270.12L1174.81 1270.12L1168.62 1280.73ZM1128.61 1303.58L1124.56 1297.16L1124.52 1297.21L1124.47 1297.27L1128.61 1303.58ZM1121.9 1314.33L1128.93 1316.01V1316.01L1121.9 1314.33ZM1118.5 1325.98L1109.93 1329.51L1108.43 1341.74L1118.41 1335.98L1118.5 1325.98ZM1182.09 1279.71L1173.43 1284.71C1173.41 1287.05 1172.91 1289.29 1171.96 1291.65L1179.34 1292.51L1186.72 1293.36C1189.37 1286.85 1190.7 1280.56 1190.75 1274.71L1182.09 1279.71ZM1179.34 1292.51L1171.87 1291.86C1170.9 1294.33 1169.62 1296.56 1167.9 1298.73L1172.29 1304.73L1176.67 1310.73C1180.91 1305.39 1184.32 1299.48 1186.81 1293.16L1179.34 1292.51ZM1172.29 1304.73L1167.96 1298.66C1166.51 1300.47 1164.8 1302.03 1162.59 1303.31L1162.51 1313.31L1162.43 1323.31C1167.46 1320.4 1172.27 1316.24 1176.62 1310.8L1172.29 1304.73ZM1162.51 1313.31L1162.59 1303.31L1120.14 1327.82L1120.05 1337.82L1119.97 1347.82L1162.43 1323.31L1162.51 1313.31ZM1120.05 1337.82L1112.2 1346.64C1114.38 1350.73 1117.66 1353.24 1121.9 1354.14L1126.85 1343.07L1131.8 1331.99C1130.02 1331.61 1128.77 1330.62 1127.9 1329L1120.05 1337.82ZM1126.85 1343.07L1121.98 1354.16C1126.52 1355.04 1131.66 1353.81 1137.16 1350.63L1137.24 1340.63L1137.32 1330.63C1135.14 1331.9 1133.35 1332.29 1131.72 1331.97L1126.85 1343.07ZM1137.24 1340.63L1137.16 1350.63L1173.41 1329.71L1173.49 1319.71L1173.57 1309.71L1137.32 1330.63L1137.24 1340.63ZM1173.49 1319.71L1164.83 1324.71L1164.72 1337.51L1173.38 1332.51L1182.04 1327.51L1182.15 1314.71L1173.49 1319.71ZM1173.38 1332.51L1173.47 1322.51L1137.22 1343.43L1137.14 1353.43L1137.05 1363.43L1173.3 1342.5L1173.38 1332.51ZM1137.14 1353.43L1137.22 1343.43C1134.1 1345.24 1131.3 1346.2 1128.73 1346.44L1125.3 1357.59L1121.87 1368.75C1126.66 1368.3 1131.75 1366.5 1137.05 1363.43L1137.14 1353.43ZM1125.3 1357.59L1128.92 1346.42C1126.27 1346.58 1123.94 1346.07 1121.9 1344.88L1115.72 1355.48L1109.53 1366.09C1113.05 1368.14 1117.11 1369.03 1121.68 1368.76L1125.3 1357.59ZM1115.72 1355.48L1121.98 1344.92C1120.01 1343.71 1118.48 1341.93 1117.37 1339.52L1109.38 1348.06L1101.39 1356.59C1103.31 1360.76 1106.01 1363.92 1109.45 1366.04L1115.72 1355.48ZM1109.38 1348.06L1117.39 1339.58C1116.34 1337.22 1115.79 1334.31 1115.82 1330.71L1107.16 1335.71L1098.5 1340.71C1098.45 1346.83 1099.39 1352.15 1101.36 1356.54L1109.38 1348.06ZM1107.16 1335.71L1115.82 1330.71C1115.85 1327.1 1116.45 1323.6 1117.53 1320.14L1109.6 1320.79L1101.67 1321.45C1099.58 1328.14 1098.55 1334.58 1098.5 1340.71L1107.16 1335.71ZM1109.6 1320.79L1117.55 1320.06C1118.72 1316.26 1120.29 1312.67 1122.27 1309.21L1116.12 1305.82L1109.98 1302.43C1106.43 1308.61 1103.66 1315.01 1101.65 1321.53L1109.6 1320.79ZM1116.12 1305.82L1122.19 1309.35C1124.24 1305.83 1126.56 1302.71 1129.17 1299.92L1125.83 1292.7L1122.49 1285.48C1117.83 1290.46 1113.67 1296.08 1110.06 1302.28L1116.12 1305.82ZM1125.83 1292.7L1129.24 1299.84C1131.8 1297.07 1134.57 1294.8 1137.63 1293.04L1137.71 1283.04L1137.8 1273.04C1132.44 1276.13 1127.28 1280.3 1122.42 1285.56L1125.83 1292.7ZM1137.71 1283.04L1137.63 1293.04L1162.8 1278.51L1162.88 1268.51L1162.96 1258.51L1137.8 1273.04L1137.71 1283.04ZM1162.88 1268.51L1162.8 1278.51C1164.93 1277.27 1166.59 1276.89 1168 1277.08L1172.61 1265.95L1177.22 1254.81C1172.9 1254.23 1168.07 1255.56 1162.96 1258.51L1162.88 1268.51ZM1172.61 1265.95L1168.22 1277.11C1169.84 1277.25 1171.05 1277.96 1171.98 1279.3L1179.52 1269.98L1187.07 1260.66C1184.65 1257.14 1181.25 1255.16 1176.99 1254.79L1172.61 1265.95ZM1179.52 1269.98L1172.11 1279.48C1172.97 1280.61 1173.45 1282.24 1173.43 1284.71L1182.09 1279.71L1190.75 1274.71C1190.8 1268.81 1189.57 1263.95 1186.94 1260.48L1179.52 1269.98ZM1162.61 1300.51L1162.53 1310.51C1167.13 1307.85 1171.3 1303.45 1174.58 1297.83L1168.51 1294.3L1162.45 1290.76C1162.4 1290.84 1162.39 1290.85 1162.42 1290.82C1162.45 1290.78 1162.5 1290.71 1162.56 1290.64C1162.63 1290.57 1162.69 1290.52 1162.73 1290.49C1162.76 1290.46 1162.76 1290.47 1162.7 1290.51L1162.61 1300.51ZM1168.51 1294.3L1174.58 1297.83C1177.85 1292.22 1179.62 1286.42 1179.67 1281.11L1171.01 1286.11L1162.35 1291.11C1162.35 1291.17 1162.34 1291.18 1162.35 1291.14C1162.36 1291.09 1162.37 1291.02 1162.4 1290.92C1162.43 1290.83 1162.46 1290.76 1162.48 1290.71C1162.5 1290.67 1162.49 1290.68 1162.45 1290.76L1168.51 1294.3ZM1171.01 1286.11L1179.67 1281.11C1179.71 1275.8 1178.02 1272 1174.81 1270.12L1168.62 1280.73L1162.44 1291.34C1162.49 1291.36 1162.49 1291.37 1162.47 1291.35C1162.45 1291.33 1162.42 1291.29 1162.4 1291.23C1162.37 1291.17 1162.36 1291.11 1162.35 1291.07C1162.34 1291.04 1162.35 1291.04 1162.35 1291.11L1171.01 1286.11ZM1168.62 1280.73L1174.81 1270.12C1171.59 1268.25 1167.45 1268.65 1162.85 1271.31L1162.77 1281.31L1162.69 1291.31C1162.75 1291.27 1162.75 1291.28 1162.72 1291.29C1162.68 1291.3 1162.62 1291.32 1162.56 1291.32C1162.49 1291.33 1162.44 1291.33 1162.41 1291.32C1162.39 1291.31 1162.4 1291.31 1162.44 1291.34L1168.62 1280.73ZM1162.77 1281.31L1162.85 1271.31L1137.69 1285.84L1137.61 1295.84L1137.53 1305.83L1162.69 1291.31L1162.77 1281.31ZM1137.61 1295.84L1137.69 1285.84C1133.07 1288.5 1128.64 1292.28 1124.56 1297.16L1128.61 1303.58L1132.65 1310C1134.07 1308.3 1135.64 1306.92 1137.53 1305.83L1137.61 1295.84ZM1128.61 1303.58L1124.47 1297.27C1120.64 1301.91 1117.42 1307.08 1114.87 1312.65L1121.9 1314.33L1128.93 1316.01C1129.97 1313.73 1131.22 1311.73 1132.74 1309.89L1128.61 1303.58ZM1121.9 1314.33L1114.87 1312.65C1112.26 1318.36 1110.61 1324.03 1109.93 1329.51L1118.5 1325.98L1127.06 1322.44C1127.33 1320.25 1127.95 1318.15 1128.93 1316.01L1121.9 1314.33ZM1118.5 1325.98L1118.41 1335.98L1162.53 1310.51L1162.61 1300.51L1162.7 1290.51L1118.58 1315.98L1118.5 1325.98ZM1203.68 1315.02L1203.6 1325.01L1212.26 1320.01L1212.34 1310.02L1203.68 1315.02ZM1192.59 1321.42L1183.93 1326.42L1183.85 1336.41L1192.51 1331.41L1192.59 1321.42ZM1193.17 1251.02L1193.25 1241.02L1184.59 1246.02L1184.51 1256.02L1193.17 1251.02ZM1246.47 1223.05L1242.85 1234.22L1242.94 1234.21L1243.04 1234.21L1246.47 1223.05ZM1256.05 1225.03L1249.79 1235.59L1249.83 1235.62L1249.87 1235.64L1256.05 1225.03ZM1262.5 1232.52L1254.48 1241L1254.49 1241.03L1254.5 1241.06L1262.5 1232.52ZM1264.42 1279.94L1264.34 1289.94L1273 1284.94L1273.09 1274.94L1264.42 1279.94ZM1253.34 1286.34L1244.68 1291.34L1244.6 1301.34L1253.26 1296.34L1253.34 1286.34ZM1251.17 1241.48L1243.62 1250.8L1243.65 1250.83L1243.67 1250.87L1251.17 1241.48ZM1244.25 1237.32L1239.65 1248.46L1239.69 1248.46L1239.73 1248.47L1244.25 1237.32ZM1204.15 1257.42L1204.23 1247.42L1195.57 1252.42L1195.49 1262.42L1204.15 1257.42ZM1203.68 1315.02L1203.76 1305.02L1192.68 1311.42L1192.59 1321.42L1192.51 1331.41L1203.6 1325.01L1203.68 1315.02ZM1192.59 1321.42L1201.25 1316.42L1201.83 1246.02L1193.17 1251.02L1184.51 1256.02L1183.93 1326.42L1192.59 1321.42ZM1193.17 1251.02L1193.09 1261.02L1234.66 1237.02L1234.74 1227.02L1234.82 1217.02L1193.25 1241.02L1193.17 1251.02ZM1234.74 1227.02L1234.66 1237.02C1237.72 1235.25 1240.42 1234.36 1242.85 1234.22L1246.47 1223.05L1250.09 1211.88C1245.31 1212.16 1240.18 1213.92 1234.82 1217.02L1234.74 1227.02ZM1246.47 1223.05L1243.04 1234.21C1245.68 1233.96 1247.9 1234.43 1249.79 1235.59L1256.05 1225.03L1262.31 1214.47C1258.78 1212.31 1254.62 1211.46 1249.9 1211.89L1246.47 1223.05ZM1256.05 1225.03L1249.87 1235.64C1251.86 1236.8 1253.38 1238.57 1254.48 1241L1262.5 1232.52L1270.51 1224.04C1268.58 1219.73 1265.81 1216.51 1262.23 1214.43L1256.05 1225.03ZM1262.5 1232.52L1254.5 1241.06C1255.54 1243.3 1256.08 1246.14 1256.05 1249.74L1264.71 1244.74L1273.37 1239.74C1273.42 1233.62 1272.49 1228.32 1270.49 1223.99L1262.5 1232.52ZM1264.71 1244.74L1256.05 1249.74L1255.76 1284.94L1264.42 1279.94L1273.09 1274.94L1273.37 1239.74L1264.71 1244.74ZM1264.42 1279.94L1264.51 1269.94L1253.42 1276.34L1253.34 1286.34L1253.26 1296.34L1264.34 1289.94L1264.42 1279.94ZM1253.34 1286.34L1262 1281.34L1262.29 1246.14L1253.63 1251.14L1244.97 1256.14L1244.68 1291.34L1253.34 1286.34ZM1253.63 1251.14L1262.29 1246.14C1262.34 1240.37 1261.16 1235.59 1258.67 1232.09L1251.17 1241.48L1243.67 1250.87C1244.52 1252.06 1244.99 1253.72 1244.97 1256.14L1253.63 1251.14ZM1251.17 1241.48L1258.72 1232.16C1256.32 1228.67 1252.96 1226.66 1248.78 1226.17L1244.25 1237.32L1239.73 1248.47C1241.42 1248.67 1242.68 1249.43 1243.62 1250.8L1251.17 1241.48ZM1244.25 1237.32L1248.86 1226.18C1244.57 1225.61 1239.79 1226.89 1234.72 1229.82L1234.63 1239.82L1234.55 1249.82C1236.58 1248.65 1238.2 1248.26 1239.65 1248.46L1244.25 1237.32ZM1234.63 1239.82L1234.72 1229.82L1204.23 1247.42L1204.15 1257.42L1204.07 1267.42L1234.55 1249.82L1234.63 1239.82ZM1204.15 1257.42L1195.49 1262.42L1195.02 1320.02L1203.68 1315.02L1212.34 1310.02L1212.81 1252.42L1204.15 1257.42Z" fill="black"/>
</g>
<defs>
<filter id="filter0_f_0_1" x="80.3203" y="1314" width="1176.16" height="942.883" filterUnits="userSpaceOnUse" color-interpolation-filters="sRGB">
<feFlood flood-opacity="0" result="BackgroundImageFix"/>
<feBlend mode="normal" in="SourceGraphic" in2="BackgroundImageFix" result="shape"/>
<feGaussianBlur stdDeviation="3.5" result="effect1_foregroundBlur_0_1"/>
</filter>
<filter id="filter1_i_0_1" x="1374.16" y="1594.59" width="68.3359" height="114.203" filterUnits="userSpaceOnUse" color-interpolation-filters="sRGB">
<feFlood flood-opacity="0" result="BackgroundImageFix"/>
<feBlend mode="normal" in="SourceGraphic" in2="BackgroundImageFix" result="shape"/>
<feColorMatrix in="SourceAlpha" type="matrix" values="0 0 0 0 0 0 0 0 0 0 0 0 0 0 0 0 0 0 127 0" result="hardAlpha"/>
<feOffset dx="-10"/>
<feComposite in2="hardAlpha" operator="arithmetic" k2="-1" k3="1"/>
<feColorMatrix type="matrix" values="0 0 0 0 0 0 0 0 0 0 0 0 0 0 0 0 0 0 0.5 0"/>
<feBlend mode="normal" in2="shape" result="effect1_innerShadow_0_1"/>
</filter>
<filter id="filter2_f_0_1" x="708.133" y="1107.58" width="905.227" height="529.617" filterUnits="userSpaceOnUse" color-interpolation-filters="sRGB">
<feFlood flood-opacity="0" result="BackgroundImageFix"/>
<feBlend mode="normal" in="SourceGraphic" in2="BackgroundImageFix" result="shape"/>
<feGaussianBlur stdDeviation="3.5" result="effect1_foregroundBlur_0_1"/>
</filter>
<filter id="filter3_f_0_1" x="80.3242" y="1520.38" width="819.492" height="736.504" filterUnits="userSpaceOnUse" color-interpolation-filters="sRGB">
<feFlood flood-opacity="0" result="BackgroundImageFix"/>
<feBlend mode="normal" in="SourceGraphic" in2="BackgroundImageFix" result="shape"/>
<feGaussianBlur stdDeviation="3.5" result="effect1_foregroundBlur_0_1"/>
</filter>
<filter id="filter4_f_0_1" x="351.453" y="1313.95" width="905.227" height="529.617" filterUnits="userSpaceOnUse" color-interpolation-filters="sRGB">
<feFlood flood-opacity="0" result="BackgroundImageFix"/>
<feBlend mode="normal" in="SourceGraphic" in2="BackgroundImageFix" result="shape"/>
<feGaussianBlur stdDeviation="3.5" result="effect1_foregroundBlur_0_1"/>
</filter>
<filter id="filter5_f_0_1" x="-6.36328" y="1726.76" width="549.5" height="602.195" filterUnits="userSpaceOnUse" color-interpolation-filters="sRGB">
<feFlood flood-opacity="0" result="BackgroundImageFix"/>
<feBlend mode="normal" in="SourceGraphic" in2="BackgroundImageFix" result="shape"/>
<feGaussianBlur stdDeviation="3.5" result="effect1_foregroundBlur_0_1"/>
</filter>
<filter id="filter6_f_0_1" x="-5.23047" y="1520.3" width="905.227" height="529.617" filterUnits="userSpaceOnUse" color-interpolation-filters="sRGB">
<feFlood flood-opacity="0" result="BackgroundImageFix"/>
<feBlend mode="normal" in="SourceGraphic" in2="BackgroundImageFix" result="shape"/>
<feGaussianBlur stdDeviation="3.5" result="effect1_foregroundBlur_0_1"/>
</filter>
<filter id="filter7_f_0_1" x="-6.55078" y="1503.51" width="549.5" height="546.527" filterUnits="userSpaceOnUse" color-interpolation-filters="sRGB">
<feFlood flood-opacity="0" result="BackgroundImageFix"/>
<feBlend mode="normal" in="SourceGraphic" in2="BackgroundImageFix" result="shape"/>
<feGaussianBlur stdDeviation="3.5" result="effect1_foregroundBlur_0_1"/>
</filter>
<filter id="filter8_f_0_1" x="-5.42969" y="884.441" width="1618.4" height="942.223" filterUnits="userSpaceOnUse" color-interpolation-filters="sRGB">
<feFlood flood-opacity="0" result="BackgroundImageFix"/>
<feBlend mode="normal" in="SourceGraphic" in2="BackgroundImageFix" result="shape"/>
<feGaussianBlur stdDeviation="3.5" result="effect1_foregroundBlur_0_1"/>
</filter>
<filter id="filter9_f_0_1" x="-6.55078" y="1280.59" width="549.5" height="546.527" filterUnits="userSpaceOnUse" color-interpolation-filters="sRGB">
<feFlood flood-opacity="0" result="BackgroundImageFix"/>
<feBlend mode="normal" in="SourceGraphic" in2="BackgroundImageFix" result="shape"/>
<feGaussianBlur stdDeviation="3.5" result="effect1_foregroundBlur_0_1"/>
</filter>
<filter id="filter10_f_0_1" x="-5.42969" y="661.52" width="1618.4" height="942.223" filterUnits="userSpaceOnUse" color-interpolation-filters="sRGB">
<feFlood flood-opacity="0" result="BackgroundImageFix"/>
<feBlend mode="normal" in="SourceGraphic" in2="BackgroundImageFix" result="shape"/>
<feGaussianBlur stdDeviation="3.5" result="effect1_foregroundBlur_0_1"/>
</filter>
<filter id="filter11_f_0_1" x="-6.57031" y="612.332" width="549.512" height="991.875" filterUnits="userSpaceOnUse" color-interpolation-filters="sRGB">
<feFlood flood-opacity="0" result="BackgroundImageFix"/>
<feBlend mode="normal" in="SourceGraphic" in2="BackgroundImageFix" result="shape"/>
<feGaussianBlur stdDeviation="3.5" result="effect1_foregroundBlur_0_1"/>
</filter>
<filter id="filter12_f_0_1" x="-5.42969" y="-6.74219" width="1618.4" height="942.223" filterUnits="userSpaceOnUse" color-interpolation-filters="sRGB">
<feFlood flood-opacity="0" result="BackgroundImageFix"/>
<feBlend mode="normal" in="SourceGraphic" in2="BackgroundImageFix" result="shape"/>
<feGaussianBlur stdDeviation="3.5" result="effect1_foregroundBlur_0_1"/>
</filter>
<filter id="filter13_d_0_1" x="715.566" y="1339.08" width="705.398" height="501.629" filterUnits="userSpaceOnUse" color-interpolation-filters="sRGB">
<feFlood flood-opacity="0" result="BackgroundImageFix"/>
<feColorMatrix in="SourceAlpha" type="matrix" values="0 0 0 0 0 0 0 0 0 0 0 0 0 0 0 0 0 0 127 0" result="hardAlpha"/>
<feOffset dx="-10" dy="10"/>
<feComposite in2="hardAlpha" operator="out"/>
<feColorMatrix type="matrix" values="0 0 0 0 0 0 0 0 0 0 0 0 0 0 0 0 0 0 0.25 0"/>
<feBlend mode="normal" in2="BackgroundImageFix" result="effect1_dropShadow_0_1"/>
<feBlend mode="normal" in="SourceGraphic" in2="effect1_dropShadow_0_1" result="shape"/>
</filter>
<filter id="filter14_i_0_1" x="617.16" y="1997.72" width="167.984" height="122.207" filterUnits="userSpaceOnUse" color-interpolation-filters="sRGB">
<feFlood flood-opacity="0" result="BackgroundImageFix"/>
<feBlend mode="normal" in="SourceGraphic" in2="BackgroundImageFix" result="shape"/>
<feColorMatrix in="SourceAlpha" type="matrix" values="0 0 0 0 0 0 0 0 0 0 0 0 0 0 0 0 0 0 127 0" result="hardAlpha"/>
<feOffset dx="-10"/>
<feComposite in2="hardAlpha" operator="arithmetic" k2="-1" k3="1"/>
<feColorMatrix type="matrix" values="0 0 0 0 0 0 0 0 0 0 0 0 0 0 0 0 0 0 0.6 0"/>
<feBlend mode="normal" in2="shape" result="effect1_innerShadow_0_1"/>
</filter>
<filter id="filter15_d_0_1" x="654.004" y="637.918" width="801.969" height="610.395" filterUnits="userSpaceOnUse" color-interpolation-filters="sRGB">
<feFlood flood-opacity="0" result="BackgroundImageFix"/>
<feColorMatrix in="SourceAlpha" type="matrix" values="0 0 0 0 0 0 0 0 0 0 0 0 0 0 0 0 0 0 127 0" result="hardAlpha"/>
<feOffset dx="-10" dy="10"/>
<feComposite in2="hardAlpha" operator="out"/>
<feColorMatrix type="matrix" values="0 0 0 0 0 0 0 0 0 0 0 0 0 0 0 0 0 0 0.25 0"/>
<feBlend mode="normal" in2="BackgroundImageFix" result="effect1_dropShadow_0_1"/>
<feBlend mode="normal" in="SourceGraphic" in2="effect1_dropShadow_0_1" result="shape"/>
</filter>
<filter id="filter16_i_0_1" x="926.16" y="1757.39" width="216.469" height="187.059" filterUnits="userSpaceOnUse" color-interpolation-filters="sRGB">
<feFlood flood-opacity="0" result="BackgroundImageFix"/>
<feBlend mode="normal" in="SourceGraphic" in2="BackgroundImageFix" result="shape"/>
<feColorMatrix in="SourceAlpha" type="matrix" values="0 0 0 0 0 0 0 0 0 0 0 0 0 0 0 0 0 0 127 0" result="hardAlpha"/>
<feOffset dx="-10"/>
<feComposite in2="hardAlpha" operator="arithmetic" k2="-1" k3="1"/>
<feColorMatrix type="matrix" values="0 0 0 0 0 0 0 0 0 0 0 0 0 0 0 0 0 0 0.5 0"/>
<feBlend mode="normal" in2="shape" result="effect1_innerShadow_0_1"/>
</filter>
<filter id="filter17_d_0_1" x="856.332" y="1211.78" width="417.043" height="317.953" filterUnits="userSpaceOnUse" color-interpolation-filters="sRGB">
<feFlood flood-opacity="0" result="BackgroundImageFix"/>
<feColorMatrix in="SourceAlpha" type="matrix" values="0 0 0 0 0 0 0 0 0 0 0 0 0 0 0 0 0 0 127 0" result="hardAlpha"/>
<feOffset dx="-10" dy="10"/>
<feComposite in2="hardAlpha" operator="out"/>
<feColorMatrix type="matrix" values="0 0 0 0 0 0 0 0 0 0 0 0 0 0 0 0 0 0 0.25 0"/>
<feBlend mode="normal" in2="BackgroundImageFix" result="effect1_dropShadow_0_1"/>
<feBlend mode="normal" in="SourceGraphic" in2="effect1_dropShadow_0_1" result="shape"/>
</filter>
</defs>
</svg>
